<svg id="Capa_1" enable-background="new 0 0 512 512" height="80" viewBox="0 0 512 512" width="80" xmlns="http://www.w3.org/2000/svg"><g><g fill="#b3ccff"><path d="m0 361.333h128v30h-128z"/><path d="m53.333 299.667h74.666v30h-74.666z"/><path d="m0 182.333h128v30h-128z"/><path d="m53.333 120.667h74.666v30h-74.666z"/></g><g><g><path d="m512 54.333h-149.333l-53.334 180.334-10.666 96 10.666 127h202.667z" fill="#f0b967"/><path d="m362.667 234.667v-180.334h-53.334l-10.666 95 10.666 85.334z" fill="#f7d586"/><path d="m256 54.333h-147.334v403.334h200.667v-223z" fill="#ffce7a"/><path d="m256 54.333h53.333v180.333h-53.333z" fill="#f9e89c"/></g><path d="m281.667 388.333h-104.667v-90h104.667z" fill="#f2ae61"/><g fill="#e8945b"><path d="m337 298.333h104.666v30h-104.666z"/><path d="m337 358.333h37.333v30h-37.333z"/><path d="m404.333 358.333h37.333v30h-37.333z"/></g></g></g></svg>