<svg width="85" height="85" viewBox="0 0 85 85" fill="none" xmlns="http://www.w3.org/2000/svg">
<g clip-path="url(#clip0)">
<path d="M15.59 51.5736L22.1444 45.0192C22.4876 44.676 22.4877 44.1196 22.1444 43.7763C21.8011 43.433 21.2447 43.4331 20.9015 43.7763L14.3471 50.3307C14.0038 50.6739 14.0038 51.2303 14.3471 51.5736C14.6904 51.9169 15.2467 51.9169 15.59 51.5736Z" fill="#F5F5F5"/>
<path d="M24.9079 48.2337L22.3187 50.8229C21.9755 51.1661 21.9754 51.7225 22.3187 52.0658C22.6621 52.4091 23.2185 52.409 23.5617 52.0658L26.1509 49.4766C26.4941 49.1334 26.4942 48.577 26.1509 48.2337C25.8076 47.8904 25.2511 47.8905 24.9079 48.2337Z" fill="#F5F5F5"/>
<path d="M20.2922 61.4769L26.6323 55.1369C26.9755 54.7936 26.9756 54.2372 26.6323 53.8939C26.289 53.5506 25.7325 53.5507 25.3893 53.8939L19.0492 60.234C18.706 60.5772 18.7059 61.1336 19.0492 61.4769C19.3925 61.8203 19.949 61.8202 20.2922 61.4769Z" fill="#F5F5F5"/>
<path d="M41.0809 62.7148C40.7376 62.3715 40.1812 62.3715 39.838 62.7148L33.2836 69.2691C32.9404 69.6124 32.9403 70.1688 33.2836 70.5121C33.6269 70.8554 34.1833 70.8553 34.5266 70.5121L41.0809 63.9577C41.4242 63.6145 41.4242 63.0581 41.0809 62.7148Z" fill="#F5F5F5"/>
<path d="M35.3835 58.7102L32.7943 61.2994C32.4511 61.6426 32.451 62.1991 32.7943 62.5424C33.1376 62.8857 33.6941 62.8856 34.0373 62.5424L36.6265 59.9532C36.9697 59.61 36.9698 59.0535 36.6265 58.7102C36.2832 58.3669 35.7267 58.367 35.3835 58.7102Z" fill="#F5F5F5"/>
<path d="M30.9672 58.2269C30.6239 57.8836 30.0675 57.8837 29.7243 58.2269L23.3842 64.567C23.041 64.9102 23.0409 65.4667 23.3842 65.81C23.7275 66.1533 24.2839 66.1532 24.6271 65.81L30.9672 59.4699C31.3105 59.1266 31.3105 58.5702 30.9672 58.2269Z" fill="#F5F5F5"/>
<path d="M40.2242 29.698C40.5675 29.3547 40.5675 28.7984 40.2242 28.4551L39.2756 27.5064C38.9323 27.1631 38.3759 27.1631 38.0326 27.5064C37.6893 27.8498 37.6893 28.4061 38.0326 28.7494L38.9812 29.698C39.3245 30.0413 39.8809 30.0413 40.2242 29.698Z" fill="#F5F5F5"/>
<path d="M47.694 23.4991C47.2086 23.4992 46.8151 23.8927 46.8151 24.378L46.8151 25.7196C46.8151 26.205 47.2086 26.5985 47.694 26.5985C48.1796 26.5983 48.5728 26.2049 48.5729 25.7196L48.5729 24.378C48.5728 23.8927 48.1794 23.4992 47.694 23.4991Z" fill="#F5F5F5"/>
<path d="M55.1625 28.4479C54.8192 28.7912 54.8192 29.3475 55.1625 29.6908C55.5058 30.0341 56.0622 30.0341 56.4055 29.6908L57.354 28.7423C57.6973 28.399 57.6973 27.8426 57.354 27.4993C57.0107 27.156 56.4543 27.156 56.111 27.4993L55.1625 28.4479Z" fill="#F5F5F5"/>
<path d="M59.1375 36.286C58.6521 36.2862 58.2586 36.6796 58.2585 37.165C58.2586 37.6505 58.6521 38.0439 59.1375 38.0439L60.479 38.0439C60.9646 38.0437 61.3579 37.6503 61.358 37.165C61.3579 36.6795 60.9645 36.286 60.4791 36.286L59.1375 36.286Z" fill="#F5F5F5"/>
<path d="M55.1664 45.8832L56.1149 46.8317C56.4583 47.1751 57.0146 47.1751 57.3579 46.8317C57.7012 46.4884 57.7012 45.9321 57.3579 45.5888L56.4094 44.6402C56.0661 44.2969 55.5097 44.2969 55.1664 44.6402C54.8231 44.9835 54.8232 45.54 55.1664 45.8832Z" fill="#F5F5F5"/>
<path d="M46.8131 48.6114L46.8131 49.953C46.8132 50.4385 47.2066 50.8319 47.692 50.8319C48.1775 50.8318 48.5709 50.4383 48.5709 49.953L48.5709 48.6115C48.5708 48.126 48.1774 47.7325 47.692 47.7325C47.2067 47.7325 46.8132 48.1261 46.8131 48.6114Z" fill="#F5F5F5"/>
<path d="M38.0277 45.5826C37.6845 45.9258 37.6844 46.4823 38.0277 46.8256C38.371 47.1689 38.9275 47.1688 39.2707 46.8256L40.2193 45.877C40.5625 45.5337 40.5626 44.9773 40.2193 44.634C39.876 44.2907 39.3196 44.2908 38.9764 44.634L38.0277 45.5826Z" fill="#F5F5F5"/>
<path d="M36.2485 36.2871L34.9069 36.2871C34.4216 36.2872 34.0281 36.6807 34.0281 37.166C34.0281 37.6515 34.4216 38.0449 34.907 38.0449L36.2486 38.0449C36.7341 38.0448 37.1274 37.6513 37.1274 37.1661C37.1274 36.6806 36.734 36.2872 36.2485 36.2871Z" fill="#F5F5F5"/>
<path d="M51.0383 33.8273C50.695 33.484 50.1387 33.484 49.7954 33.8273L47.6964 35.9263L43.0822 31.3121C42.7389 30.9688 42.1826 30.9688 41.8393 31.3121C41.4959 31.6554 41.4959 32.2118 41.8393 32.5551L47.0749 37.7907C47.4182 38.134 47.9746 38.134 48.3179 37.7907L51.0383 35.0703C51.3815 34.7271 51.3816 34.1707 51.0383 33.8273Z" fill="#F5F5F5"/>
<path d="M59.3775 25.2801C59.6993 24.9166 59.6656 24.3612 59.3022 24.0394C52.3852 17.9131 41.8444 18.2367 35.3049 24.7762C28.4726 31.6085 28.4726 42.7255 35.305 49.5579C42.1373 56.3902 53.2543 56.3902 60.0866 49.5579C66.2077 43.4368 66.946 33.729 61.8026 26.7685C61.5141 26.3781 60.9638 26.2955 60.5734 26.584C60.184 26.8718 60.1003 27.4227 60.3889 27.8132C65.0098 34.0665 64.3563 42.8025 58.8438 48.315C52.6968 54.462 42.695 54.462 36.548 48.315C30.4011 42.1681 30.401 32.1661 36.5479 26.0192C42.4314 20.1358 51.9143 19.8443 58.1369 25.3556C58.5 25.6772 59.0544 25.6429 59.3775 25.2801Z" fill="#F5F5F5"/>
<path d="M31.7444 21.2165C29.5583 23.4026 27.8701 25.9979 26.7468 28.8173L15.7815 39.7827C15.4383 40.1259 15.4382 40.6823 15.7815 41.0256C16.1248 41.369 16.6812 41.3689 17.0245 41.0256L25.6517 32.3984C25.236 34.3156 25.0677 36.295 25.1663 38.2872C25.1902 38.7719 25.6027 39.1455 26.0875 39.1216C26.5724 39.0976 26.9458 38.6852 26.9219 38.2003C26.6319 32.3415 28.8427 26.6041 32.9874 22.4595C41.0963 14.3506 54.2905 14.3505 62.3994 22.4594C70.5082 30.5682 70.5083 43.7624 62.3993 51.8715C54.2904 59.9804 41.0962 59.9804 32.9873 51.8715C30.1477 49.0319 28.2028 45.4647 27.3626 41.5555C27.2606 41.0809 26.7932 40.779 26.3187 40.881C25.8442 40.983 25.5421 41.4502 25.6441 41.925C26.5554 46.1658 28.6649 50.035 31.7444 53.1144C37.3597 58.7298 45.2234 60.7588 52.4644 59.2031L43.8332 67.8342C43.49 68.1775 43.4899 68.7339 43.8332 69.0772C44.1765 69.4205 44.733 69.4204 45.0762 69.0772L56.0329 58.1205C58.8055 57.0216 61.4029 55.3537 63.6423 53.1143C72.4365 44.3201 72.4366 30.0107 63.6424 21.2164C54.8481 12.4222 40.5387 12.4223 31.7444 21.2165Z" fill="#F5F5F5"/>
</g>
<defs>
<clipPath id="clip0">
<rect width="60" height="60" fill="white" transform="translate(0 42.4268) rotate(-45)"/>
</clipPath>
</defs>
</svg>
