<svg width="256" height="114" viewBox="0 0 256 114" fill="none" xmlns="http://www.w3.org/2000/svg">
<g filter="url(#filter0_dd)">
<path d="M4.76 52.6C4.76 41.08 6.632 31.432 10.376 23.656C14.12 15.88 19.352 10.024 26.072 6.08799C32.792 2.05599 40.568 0.0399952 49.4 0.0399952C63.416 0.0399952 74.36 4.50399 82.232 13.432C90.104 22.36 94.04 35.416 94.04 52.6C94.04 69.784 90.104 82.84 82.232 91.768C74.36 100.696 63.416 105.16 49.4 105.16C40.568 105.16 32.792 103.192 26.072 99.256C19.352 95.224 14.12 89.32 10.376 81.544C6.632 73.768 4.76 64.12 4.76 52.6ZM35 52.6C35 60.76 36.344 67.144 39.032 71.752C41.816 76.264 45.272 78.52 49.4 78.52C53.624 78.52 57.08 76.264 59.768 71.752C62.456 67.144 63.8 60.76 63.8 52.6C63.8 44.44 62.456 38.104 59.768 33.592C57.08 28.984 53.624 26.68 49.4 26.68C45.272 26.68 41.816 28.984 39.032 33.592C36.344 38.104 35 44.44 35 52.6ZM108.468 36.904V10.552L165.348 0.0399952V103H135.108V31L108.468 36.904Z" fill="#E1EBFF"/>
</g>
<path d="M124.285 45.2H108.885V70H105.485V42H127.685V70H124.285V45.2ZM136.879 78.8H133.679V51.6H136.879V54.76C137.546 53.6133 138.412 52.7333 139.479 52.12C140.572 51.5067 141.799 51.2 143.159 51.2C144.839 51.2 146.359 51.5867 147.719 52.36C149.106 53.1333 150.212 54.24 151.039 55.68C151.866 57.0933 152.279 58.8 152.279 60.8C152.279 62.7733 151.866 64.48 151.039 65.92C150.212 67.36 149.106 68.4667 147.719 69.24C146.359 70.0133 144.839 70.4 143.159 70.4C141.799 70.4 140.572 70.0933 139.479 69.48C138.412 68.8667 137.546 67.9867 136.879 66.84V78.8ZM149.039 60.8C149.039 59.3867 148.746 58.1867 148.159 57.2C147.599 56.2133 146.839 55.4667 145.879 54.96C144.946 54.4533 143.906 54.2 142.759 54.2C141.826 54.2 140.906 54.4533 139.999 54.96C139.092 55.4667 138.346 56.2133 137.759 57.2C137.172 58.1867 136.879 59.3867 136.879 60.8C136.879 62.2133 137.172 63.4133 137.759 64.4C138.346 65.3867 139.092 66.1333 139.999 66.64C140.906 67.1467 141.826 67.4 142.759 67.4C143.906 67.4 144.946 67.1467 145.879 66.64C146.839 66.1333 147.599 65.3867 148.159 64.4C148.746 63.4133 149.039 62.2133 149.039 60.8ZM155.091 60.8C155.091 58.9333 155.505 57.28 156.331 55.84C157.185 54.4 158.331 53.2667 159.771 52.44C161.211 51.6133 162.825 51.2 164.611 51.2C166.425 51.2 168.038 51.6133 169.451 52.44C170.891 53.2667 172.025 54.4 172.851 55.84C173.705 57.28 174.131 58.9333 174.131 60.8C174.131 62.64 173.705 64.2933 172.851 65.76C172.025 67.2 170.891 68.3333 169.451 69.16C168.038 69.9867 166.425 70.4 164.611 70.4C162.825 70.4 161.211 69.9867 159.771 69.16C158.331 68.3333 157.185 67.2 156.331 65.76C155.505 64.2933 155.091 62.64 155.091 60.8ZM158.331 60.8C158.331 62.08 158.598 63.2133 159.131 64.2C159.691 65.1867 160.438 65.9733 161.371 66.56C162.331 67.12 163.411 67.4 164.611 67.4C165.811 67.4 166.878 67.12 167.811 66.56C168.771 65.9733 169.518 65.1867 170.051 64.2C170.611 63.2133 170.891 62.08 170.891 60.8C170.891 59.52 170.611 58.3867 170.051 57.4C169.518 56.3867 168.771 55.6 167.811 55.04C166.878 54.48 165.811 54.2 164.611 54.2C163.411 54.2 162.331 54.48 161.371 55.04C160.438 55.6 159.691 56.3867 159.131 57.4C158.598 58.3867 158.331 59.52 158.331 60.8ZM179.967 60.8C179.967 62.08 180.234 63.2133 180.767 64.2C181.327 65.1867 182.074 65.9733 183.007 66.56C183.967 67.12 185.047 67.4 186.247 67.4C187.741 67.4 189.074 67.0667 190.247 66.4C191.421 65.7333 192.221 64.9467 192.647 64.04V68.04C192.007 68.7867 191.087 69.3733 189.887 69.8C188.714 70.2 187.501 70.4 186.247 70.4C184.461 70.4 182.847 69.9867 181.407 69.16C179.967 68.3333 178.821 67.2 177.967 65.76C177.141 64.2933 176.727 62.64 176.727 60.8C176.727 58.9333 177.141 57.28 177.967 55.84C178.821 54.4 179.967 53.2667 181.407 52.44C182.847 51.6133 184.461 51.2 186.247 51.2C187.501 51.2 188.714 51.4133 189.887 51.84C191.087 52.24 192.007 52.8133 192.647 53.56V57.56C192.221 56.6533 191.421 55.8667 190.247 55.2C189.074 54.5333 187.741 54.2 186.247 54.2C185.047 54.2 183.967 54.48 183.007 55.04C182.074 55.6 181.327 56.3867 180.767 57.4C180.234 58.3867 179.967 59.52 179.967 60.8ZM194.829 51.6H205.629V54.6H201.829V70H198.629V54.6H194.829V51.6ZM206.654 60.8C206.654 58.9333 207.067 57.28 207.894 55.84C208.747 54.4 209.894 53.2667 211.334 52.44C212.774 51.6133 214.387 51.2 216.174 51.2C217.987 51.2 219.601 51.6133 221.014 52.44C222.454 53.2667 223.587 54.4 224.414 55.84C225.267 57.28 225.694 58.9333 225.694 60.8C225.694 62.64 225.267 64.2933 224.414 65.76C223.587 67.2 222.454 68.3333 221.014 69.16C219.601 69.9867 217.987 70.4 216.174 70.4C214.387 70.4 212.774 69.9867 211.334 69.16C209.894 68.3333 208.747 67.2 207.894 65.76C207.067 64.2933 206.654 62.64 206.654 60.8ZM209.894 60.8C209.894 62.08 210.161 63.2133 210.694 64.2C211.254 65.1867 212.001 65.9733 212.934 66.56C213.894 67.12 214.974 67.4 216.174 67.4C217.374 67.4 218.441 67.12 219.374 66.56C220.334 65.9733 221.081 65.1867 221.614 64.2C222.174 63.2133 222.454 62.08 222.454 60.8C222.454 59.52 222.174 58.3867 221.614 57.4C221.081 56.3867 220.334 55.6 219.374 55.04C218.441 54.48 217.374 54.2 216.174 54.2C214.974 54.2 213.894 54.48 212.934 55.04C212.001 55.6 211.254 56.3867 210.694 57.4C210.161 58.3867 209.894 59.52 209.894 60.8ZM227.29 51.6H238.09V54.6H234.29V70H231.09V54.6H227.29V51.6ZM242.741 55.92L241.181 53.48C241.874 52.9733 242.807 52.4667 243.981 51.96C245.154 51.4533 246.567 51.2 248.221 51.2C250.327 51.2 252.034 51.6933 253.341 52.68C254.647 53.64 255.301 55.0133 255.301 56.8V70H252.101V67.36C251.541 68.3467 250.701 69.1067 249.581 69.64C248.461 70.1467 247.207 70.4 245.821 70.4C244.674 70.4 243.621 70.1867 242.661 69.76C241.701 69.3333 240.927 68.7067 240.341 67.88C239.781 67.0267 239.501 65.9733 239.501 64.72C239.501 62.7733 240.194 61.2667 241.581 60.2C242.994 59.1067 244.914 58.56 247.341 58.56C248.407 58.56 249.341 58.6933 250.141 58.96C250.941 59.2267 251.594 59.5333 252.101 59.88V56.8C252.101 55.8667 251.701 55.1733 250.901 54.72C250.127 54.24 249.234 54 248.221 54C246.914 54 245.781 54.24 244.821 54.72C243.887 55.2 243.194 55.6 242.741 55.92ZM242.741 64.6C242.741 65.5867 243.114 66.3333 243.861 66.84C244.634 67.32 245.554 67.56 246.621 67.56C248.221 67.56 249.527 67.2 250.541 66.48C251.581 65.7333 252.101 64.5067 252.101 62.8V62.08C250.741 61.36 249.207 61 247.501 61C245.874 61 244.674 61.32 243.901 61.96C243.127 62.6 242.741 63.48 242.741 64.6Z" fill="#2682EF"/>
<defs>
<filter id="filter0_dd" x="0.76001" y="0.0400391" width="168.588" height="113.12" filterUnits="userSpaceOnUse" color-interpolation-filters="sRGB">
<feFlood flood-opacity="0" result="BackgroundImageFix"/>
<feColorMatrix in="SourceAlpha" type="matrix" values="0 0 0 0 0 0 0 0 0 0 0 0 0 0 0 0 0 0 127 0"/>
<feOffset dy="4"/>
<feGaussianBlur stdDeviation="2"/>
<feColorMatrix type="matrix" values="0 0 0 0 0 0 0 0 0 0 0 0 0 0 0 0 0 0 0.25 0"/>
<feBlend mode="normal" in2="BackgroundImageFix" result="effect1_dropShadow"/>
<feColorMatrix in="SourceAlpha" type="matrix" values="0 0 0 0 0 0 0 0 0 0 0 0 0 0 0 0 0 0 127 0"/>
<feOffset dy="4"/>
<feGaussianBlur stdDeviation="2"/>
<feColorMatrix type="matrix" values="0 0 0 0 0 0 0 0 0 0 0 0 0 0 0 0 0 0 0.25 0"/>
<feBlend mode="normal" in2="effect1_dropShadow" result="effect2_dropShadow"/>
<feBlend mode="normal" in="SourceGraphic" in2="effect2_dropShadow" result="shape"/>
</filter>
</defs>
</svg>
