<svg width="287" height="115" viewBox="0 0 287 115" fill="none" xmlns="http://www.w3.org/2000/svg">
<g filter="url(#filter0_dd)">
<path d="M4.76 53.6C4.76 42.08 6.632 32.432 10.376 24.656C14.12 16.88 19.352 11.024 26.072 7.08799C32.792 3.05599 40.568 1.04 49.4 1.04C63.416 1.04 74.36 5.50399 82.232 14.432C90.104 23.36 94.04 36.416 94.04 53.6C94.04 70.784 90.104 83.84 82.232 92.768C74.36 101.696 63.416 106.16 49.4 106.16C40.568 106.16 32.792 104.192 26.072 100.256C19.352 96.224 14.12 90.32 10.376 82.544C6.632 74.768 4.76 65.12 4.76 53.6ZM35 53.6C35 61.76 36.344 68.144 39.032 72.752C41.816 77.264 45.272 79.52 49.4 79.52C53.624 79.52 57.08 77.264 59.768 72.752C62.456 68.144 63.8 61.76 63.8 53.6C63.8 45.44 62.456 39.104 59.768 34.592C57.08 29.984 53.624 27.68 49.4 27.68C45.272 27.68 41.816 29.984 39.032 34.592C36.344 39.104 35 45.44 35 53.6ZM102.708 104L146.052 60.08C150.564 55.28 154.068 51.248 156.564 47.984C159.156 44.624 160.452 40.976 160.452 37.04C160.452 34.544 159.636 32.336 158.004 30.416C156.372 28.496 153.732 27.536 150.084 27.536C146.532 27.536 143.604 28.976 141.3 31.856C139.092 34.64 137.988 38.048 137.988 42.08H107.028C107.028 34.88 108.66 28.16 111.924 21.92C115.188 15.68 120.084 10.64 126.612 6.8C133.236 2.864 141.444 0.895997 151.236 0.895997C160.164 0.895997 167.748 2.528 173.988 5.79199C180.228 9.056 184.98 13.28 188.244 18.464C191.604 23.552 193.284 28.976 193.284 34.736C193.284 40.304 191.892 45.248 189.108 49.568C186.324 53.792 182.628 57.68 178.02 61.232L159.876 75.2H196.884V104H102.708Z" fill="#E1EBFF"/>
</g>
<path d="M108.39 62.8C108.39 64.64 107.964 66.1733 107.11 67.4C106.284 68.6 105.15 69.5067 103.71 70.12C102.297 70.7067 100.684 71 98.8703 71H91.2703V43H98.4703C100.977 43 102.99 43.5733 104.51 44.72C106.03 45.8667 106.79 47.6267 106.79 50C106.79 51.44 106.377 52.6533 105.55 53.64C104.724 54.6 103.59 55.2933 102.15 55.72C103.99 56.0933 105.484 56.8667 106.63 58.04C107.804 59.1867 108.39 60.7733 108.39 62.8ZM98.4703 46H94.6703V54.32H98.4703C99.8836 54.32 101.057 53.96 101.99 53.24C102.924 52.52 103.39 51.5067 103.39 50.2C103.39 48.8667 102.924 47.84 101.99 47.12C101.057 46.3733 99.8836 46 98.4703 46ZM94.6703 68H98.8703C100.684 68 102.15 67.5333 103.27 66.6C104.417 65.64 104.99 64.3067 104.99 62.6C104.99 60.8667 104.417 59.5467 103.27 58.64C102.15 57.7333 100.684 57.28 98.8703 57.28H94.6703V68ZM129.975 52.6H133.175V71H129.975V52.6ZM113.375 52.6H116.575V59.56H120.975C122.868 59.56 124.455 60.0267 125.735 60.96C127.042 61.8667 127.695 63.3067 127.695 65.28C127.695 67.2533 127.042 68.7067 125.735 69.64C124.455 70.5467 122.868 71 120.975 71H113.375V52.6ZM120.975 62.36H116.575V68.2H120.975C122.148 68.2 123.028 67.9467 123.615 67.44C124.202 66.9067 124.495 66.1867 124.495 65.28C124.495 64.3467 124.202 63.6267 123.615 63.12C123.028 62.6133 122.148 62.36 120.975 62.36ZM139.356 52.6H149.156V55.6H142.556V71H139.356V52.6ZM150.173 61.8C150.173 59.9333 150.587 58.28 151.413 56.84C152.267 55.4 153.413 54.2667 154.853 53.44C156.293 52.6133 157.907 52.2 159.693 52.2C161.507 52.2 163.12 52.6133 164.533 53.44C165.973 54.2667 167.107 55.4 167.933 56.84C168.787 58.28 169.213 59.9333 169.213 61.8C169.213 63.64 168.787 65.2933 167.933 66.76C167.107 68.2 165.973 69.3333 164.533 70.16C163.12 70.9867 161.507 71.4 159.693 71.4C157.907 71.4 156.293 70.9867 154.853 70.16C153.413 69.3333 152.267 68.2 151.413 66.76C150.587 65.2933 150.173 63.64 150.173 61.8ZM153.413 61.8C153.413 63.08 153.68 64.2133 154.213 65.2C154.773 66.1867 155.52 66.9733 156.453 67.56C157.413 68.12 158.493 68.4 159.693 68.4C160.893 68.4 161.96 68.12 162.893 67.56C163.853 66.9733 164.6 66.1867 165.133 65.2C165.693 64.2133 165.973 63.08 165.973 61.8C165.973 60.52 165.693 59.3867 165.133 58.4C164.6 57.3867 163.853 56.6 162.893 56.04C161.96 55.48 160.893 55.2 159.693 55.2C158.493 55.2 157.413 55.48 156.453 56.04C155.52 56.6 154.773 57.3867 154.213 58.4C153.68 59.3867 153.413 60.52 153.413 61.8ZM189.817 71H173.617V74.6H170.217V68H173.497L181.617 51.2L189.737 68H193.017V74.6H189.817V71ZM181.617 58.12L177.057 68H186.177L181.617 58.12ZM197.828 52.6H201.028V59.8H211.228V52.6H214.428V71H211.228V62.8H201.028V71H197.828V52.6ZM218.845 61.8C218.845 59.9333 219.259 58.28 220.085 56.84C220.939 55.4 222.085 54.2667 223.525 53.44C224.965 52.6133 226.579 52.2 228.365 52.2C230.179 52.2 231.792 52.6133 233.205 53.44C234.645 54.2667 235.779 55.4 236.605 56.84C237.459 58.28 237.885 59.9333 237.885 61.8C237.885 63.64 237.459 65.2933 236.605 66.76C235.779 68.2 234.645 69.3333 233.205 70.16C231.792 70.9867 230.179 71.4 228.365 71.4C226.579 71.4 224.965 70.9867 223.525 70.16C222.085 69.3333 220.939 68.2 220.085 66.76C219.259 65.2933 218.845 63.64 218.845 61.8ZM222.085 61.8C222.085 63.08 222.352 64.2133 222.885 65.2C223.445 66.1867 224.192 66.9733 225.125 67.56C226.085 68.12 227.165 68.4 228.365 68.4C229.565 68.4 230.632 68.12 231.565 67.56C232.525 66.9733 233.272 66.1867 233.805 65.2C234.365 64.2133 234.645 63.08 234.645 61.8C234.645 60.52 234.365 59.3867 233.805 58.4C233.272 57.3867 232.525 56.6 231.565 56.04C230.632 55.48 229.565 55.2 228.365 55.2C227.165 55.2 226.085 55.48 225.125 56.04C224.192 56.6 223.445 57.3867 222.885 58.4C222.352 59.3867 222.085 60.52 222.085 61.8ZM243.721 61.8C243.721 63.08 243.988 64.2133 244.521 65.2C245.081 66.1867 245.828 66.9733 246.761 67.56C247.721 68.12 248.801 68.4 250.001 68.4C251.495 68.4 252.828 68.0667 254.001 67.4C255.175 66.7333 255.975 65.9467 256.401 65.04V69.04C255.761 69.7867 254.841 70.3733 253.641 70.8C252.468 71.2 251.255 71.4 250.001 71.4C248.215 71.4 246.601 70.9867 245.161 70.16C243.721 69.3333 242.575 68.2 241.721 66.76C240.895 65.2933 240.481 63.64 240.481 61.8C240.481 59.9333 240.895 58.28 241.721 56.84C242.575 55.4 243.721 54.2667 245.161 53.44C246.601 52.6133 248.215 52.2 250.001 52.2C251.255 52.2 252.468 52.4133 253.641 52.84C254.841 53.24 255.761 53.8133 256.401 54.56V58.56C255.975 57.6533 255.175 56.8667 254.001 56.2C252.828 55.5333 251.495 55.2 250.001 55.2C248.801 55.2 247.721 55.48 246.761 56.04C245.828 56.6 245.081 57.3867 244.521 58.4C243.988 59.3867 243.721 60.52 243.721 61.8ZM258.583 52.6H269.383V55.6H265.583V71H262.383V55.6H258.583V52.6ZM272.594 52.6H275.794V59.56H280.194C282.087 59.56 283.674 60.0267 284.954 60.96C286.26 61.8667 286.914 63.3067 286.914 65.28C286.914 67.2533 286.26 68.7067 284.954 69.64C283.674 70.5467 282.087 71 280.194 71H272.594V52.6ZM280.194 62.36H275.794V68.2H280.194C281.367 68.2 282.247 67.9467 282.834 67.44C283.42 66.9067 283.714 66.1867 283.714 65.28C283.714 64.3467 283.42 63.6267 282.834 63.12C282.247 62.6133 281.367 62.36 280.194 62.36Z" fill="#2682EF"/>
<defs>
<filter id="filter0_dd" x="0.76001" y="0.896484" width="200.124" height="113.264" filterUnits="userSpaceOnUse" color-interpolation-filters="sRGB">
<feFlood flood-opacity="0" result="BackgroundImageFix"/>
<feColorMatrix in="SourceAlpha" type="matrix" values="0 0 0 0 0 0 0 0 0 0 0 0 0 0 0 0 0 0 127 0"/>
<feOffset dy="4"/>
<feGaussianBlur stdDeviation="2"/>
<feColorMatrix type="matrix" values="0 0 0 0 0 0 0 0 0 0 0 0 0 0 0 0 0 0 0.25 0"/>
<feBlend mode="normal" in2="BackgroundImageFix" result="effect1_dropShadow"/>
<feColorMatrix in="SourceAlpha" type="matrix" values="0 0 0 0 0 0 0 0 0 0 0 0 0 0 0 0 0 0 127 0"/>
<feOffset dy="4"/>
<feGaussianBlur stdDeviation="2"/>
<feColorMatrix type="matrix" values="0 0 0 0 0 0 0 0 0 0 0 0 0 0 0 0 0 0 0.25 0"/>
<feBlend mode="normal" in2="effect1_dropShadow" result="effect2_dropShadow"/>
<feBlend mode="normal" in="SourceGraphic" in2="effect2_dropShadow" result="shape"/>
</filter>
</defs>
</svg>
