<svg width="327" height="114" viewBox="0 0 327 114" fill="none" xmlns="http://www.w3.org/2000/svg">
<g filter="url(#filter0_dd)">
<path d="M4.76 52.6C4.76 41.08 6.632 31.432 10.376 23.656C14.12 15.88 19.352 10.024 26.072 6.08799C32.792 2.05599 40.568 0.0399952 49.4 0.0399952C63.416 0.0399952 74.36 4.50399 82.232 13.432C90.104 22.36 94.04 35.416 94.04 52.6C94.04 69.784 90.104 82.84 82.232 91.768C74.36 100.696 63.416 105.16 49.4 105.16C40.568 105.16 32.792 103.192 26.072 99.256C19.352 95.224 14.12 89.32 10.376 81.544C6.632 73.768 4.76 64.12 4.76 52.6ZM35 52.6C35 60.76 36.344 67.144 39.032 71.752C41.816 76.264 45.272 78.52 49.4 78.52C53.624 78.52 57.08 76.264 59.768 71.752C62.456 67.144 63.8 60.76 63.8 52.6C63.8 44.44 62.456 38.104 59.768 33.592C57.08 28.984 53.624 26.68 49.4 26.68C45.272 26.68 41.816 28.984 39.032 33.592C36.344 38.104 35 44.44 35 52.6ZM148.5 105.88C141.684 105.88 135.588 104.824 130.212 102.712C124.932 100.6 120.468 97.72 116.82 94.072C113.172 90.424 110.388 86.344 108.468 81.832C106.548 77.224 105.588 72.52 105.588 67.72H136.692C136.692 71.08 137.316 73.768 138.564 75.784C139.908 77.8 141.588 79.24 143.604 80.104C145.716 80.968 147.828 81.4 149.94 81.4C153.204 81.4 155.988 80.776 158.292 79.528C160.596 78.184 161.748 75.688 161.748 72.04C161.748 70.024 161.124 68.152 159.876 66.424C158.724 64.696 156.66 63.304 153.684 62.248C150.708 61.096 146.58 60.52 141.3 60.52V41.944C146.388 41.944 150.564 40.84 153.828 38.632C157.188 36.424 158.868 33.832 158.868 30.856C158.868 28.936 158.1 27.4 156.564 26.248C155.124 25.096 152.868 24.52 149.796 24.52C146.532 24.52 143.892 25.432 141.876 27.256C139.86 29.08 138.852 31.48 138.852 34.456H109.908C109.908 28.024 111.54 22.216 114.804 17.032C118.068 11.848 122.676 7.72 128.628 4.648C134.676 1.576 141.78 0.0399952 149.94 0.0399952C158.58 0.0399952 165.876 1.288 171.828 3.784C177.78 6.27999 182.292 9.68799 185.364 14.008C188.436 18.328 189.972 23.224 189.972 28.696C189.972 33.976 188.436 38.344 185.364 41.8C182.388 45.256 178.308 47.992 173.124 50.008C179.364 52.312 184.212 55.528 187.668 59.656C191.124 63.688 192.852 68.776 192.852 74.92C192.852 80.872 191.124 86.2 187.668 90.904C184.308 95.512 179.316 99.16 172.692 101.848C166.164 104.536 158.1 105.88 148.5 105.88Z" fill="#E1EBFF"/>
</g>
<path d="M113.852 42H128.852V45.2H117.252V53.2H121.452C123.266 53.2 124.879 53.5467 126.292 54.24C127.732 54.9067 128.866 55.8667 129.692 57.12C130.546 58.3733 130.972 59.8667 130.972 61.6C130.972 63.3067 130.546 64.8 129.692 66.08C128.866 67.3333 127.732 68.3067 126.292 69C124.879 69.6667 123.266 70 121.452 70H113.852V42ZM121.452 56.4H117.252V66.8H121.452C123.266 66.8 124.732 66.36 125.852 65.48C126.999 64.6 127.572 63.3067 127.572 61.6C127.572 59.8667 126.999 58.5733 125.852 57.72C124.732 56.84 123.266 56.4 121.452 56.4ZM151.446 65.72C150.833 66.6533 150.153 67.48 149.406 68.2C148.66 68.8933 147.753 69.44 146.686 69.84C145.62 70.2133 144.286 70.4 142.686 70.4C141.033 70.4 139.54 69.9867 138.206 69.16C136.9 68.3333 135.86 67.2 135.086 65.76C134.34 64.2933 133.966 62.64 133.966 60.8C133.966 60.4533 133.98 60.12 134.006 59.8C134.033 59.48 134.073 59.16 134.126 58.84C134.393 57.32 134.926 55.9867 135.726 54.84C136.526 53.6933 137.553 52.8 138.806 52.16C140.086 51.52 141.513 51.2 143.086 51.2C144.82 51.2 146.34 51.5867 147.646 52.36C148.953 53.1333 149.966 54.2267 150.686 55.64C151.406 57.0267 151.766 58.6933 151.766 60.64C151.766 60.8 151.766 60.96 151.766 61.12C151.766 61.28 151.753 61.44 151.726 61.6H137.246C137.38 63.4667 137.966 64.9067 139.006 65.92C140.046 66.9067 141.406 67.4 143.086 67.4C144.42 67.4 145.553 67.0933 146.486 66.48C147.446 65.8667 148.233 65.0667 148.846 64.08L151.446 65.72ZM143.086 54C141.593 54 140.3 54.44 139.206 55.32C138.113 56.1733 137.486 57.36 137.326 58.88H148.286C148.126 57.44 147.62 56.2667 146.766 55.36C145.913 54.4533 144.686 54 143.086 54ZM162.992 70.4C160.832 70.4 159.099 69.8133 157.792 68.64C156.512 67.4667 155.766 65.9867 155.552 64.2H158.792C158.979 65.08 159.379 65.8667 159.992 66.56C160.606 67.2533 161.606 67.6 162.992 67.6C164.246 67.6 165.232 67.3333 165.952 66.8C166.672 66.2667 167.032 65.5467 167.032 64.64C167.032 63.7067 166.659 62.9733 165.912 62.44C165.166 61.88 164.086 61.6 162.672 61.6V58.8C163.899 58.8 164.779 58.5733 165.312 58.12C165.846 57.64 166.112 57.0667 166.112 56.4C166.112 55.68 165.846 55.12 165.312 54.72C164.779 54.2933 164.032 54.08 163.072 54.08C161.846 54.08 160.952 54.4133 160.392 55.08C159.859 55.72 159.592 56.3467 159.592 56.96H156.352C156.352 55.92 156.646 54.96 157.232 54.08C157.819 53.2 158.619 52.5067 159.632 52C160.646 51.4667 161.792 51.2 163.072 51.2C164.272 51.2 165.352 51.4267 166.312 51.88C167.272 52.3333 168.019 52.9333 168.552 53.68C169.112 54.4267 169.392 55.2533 169.392 56.16C169.392 57.9467 168.432 59.2533 166.512 60.08C167.659 60.4267 168.552 60.9733 169.192 61.72C169.859 62.4667 170.192 63.4267 170.192 64.6C170.192 65.8 169.859 66.84 169.192 67.72C168.552 68.5733 167.686 69.24 166.592 69.72C165.499 70.1733 164.299 70.4 162.992 70.4ZM173.38 60.8C173.38 58.9333 173.794 57.28 174.62 55.84C175.474 54.4 176.62 53.2667 178.06 52.44C179.5 51.6133 181.114 51.2 182.9 51.2C184.714 51.2 186.327 51.6133 187.74 52.44C189.18 53.2667 190.314 54.4 191.14 55.84C191.994 57.28 192.42 58.9333 192.42 60.8C192.42 62.64 191.994 64.2933 191.14 65.76C190.314 67.2 189.18 68.3333 187.74 69.16C186.327 69.9867 184.714 70.4 182.9 70.4C181.114 70.4 179.5 69.9867 178.06 69.16C176.62 68.3333 175.474 67.2 174.62 65.76C173.794 64.2933 173.38 62.64 173.38 60.8ZM176.62 60.8C176.62 62.08 176.887 63.2133 177.42 64.2C177.98 65.1867 178.727 65.9733 179.66 66.56C180.62 67.12 181.7 67.4 182.9 67.4C184.1 67.4 185.167 67.12 186.1 66.56C187.06 65.9733 187.807 65.1867 188.34 64.2C188.9 63.2133 189.18 62.08 189.18 60.8C189.18 59.52 188.9 58.3867 188.34 57.4C187.807 56.3867 187.06 55.6 186.1 55.04C185.167 54.48 184.1 54.2 182.9 54.2C181.7 54.2 180.62 54.48 179.66 55.04C178.727 55.6 177.98 56.3867 177.42 57.4C176.887 58.3867 176.62 59.52 176.62 60.8ZM211.816 51.6V70H208.616V54.6H200.016V70H196.816V51.6H211.816ZM219.272 55.92L217.712 53.48C218.405 52.9733 219.339 52.4667 220.512 51.96C221.685 51.4533 223.099 51.2 224.752 51.2C226.859 51.2 228.565 51.6933 229.872 52.68C231.179 53.64 231.832 55.0133 231.832 56.8V70H228.632V67.36C228.072 68.3467 227.232 69.1067 226.112 69.64C224.992 70.1467 223.739 70.4 222.352 70.4C221.205 70.4 220.152 70.1867 219.192 69.76C218.232 69.3333 217.459 68.7067 216.872 67.88C216.312 67.0267 216.032 65.9733 216.032 64.72C216.032 62.7733 216.725 61.2667 218.112 60.2C219.525 59.1067 221.445 58.56 223.872 58.56C224.939 58.56 225.872 58.6933 226.672 58.96C227.472 59.2267 228.125 59.5333 228.632 59.88V56.8C228.632 55.8667 228.232 55.1733 227.432 54.72C226.659 54.24 225.765 54 224.752 54C223.445 54 222.312 54.24 221.352 54.72C220.419 55.2 219.725 55.6 219.272 55.92ZM219.272 64.6C219.272 65.5867 219.645 66.3333 220.392 66.84C221.165 67.32 222.085 67.56 223.152 67.56C224.752 67.56 226.059 67.2 227.072 66.48C228.112 65.7333 228.632 64.5067 228.632 62.8V62.08C227.272 61.36 225.739 61 224.032 61C222.405 61 221.205 61.32 220.432 61.96C219.659 62.6 219.272 63.48 219.272 64.6ZM238.686 60.8C238.686 62.08 238.953 63.2133 239.486 64.2C240.046 65.1867 240.793 65.9733 241.726 66.56C242.686 67.12 243.766 67.4 244.966 67.4C246.459 67.4 247.793 67.0667 248.966 66.4C250.139 65.7333 250.939 64.9467 251.366 64.04V68.04C250.726 68.7867 249.806 69.3733 248.606 69.8C247.433 70.2 246.219 70.4 244.966 70.4C243.179 70.4 241.566 69.9867 240.126 69.16C238.686 68.3333 237.539 67.2 236.686 65.76C235.859 64.2933 235.446 62.64 235.446 60.8C235.446 58.9333 235.859 57.28 236.686 55.84C237.539 54.4 238.686 53.2667 240.126 52.44C241.566 51.6133 243.179 51.2 244.966 51.2C246.219 51.2 247.433 51.4133 248.606 51.84C249.806 52.24 250.726 52.8133 251.366 53.56V57.56C250.939 56.6533 250.139 55.8667 248.966 55.2C247.793 54.5333 246.459 54.2 244.966 54.2C243.766 54.2 242.686 54.48 241.726 55.04C240.793 55.6 240.046 56.3867 239.486 57.4C238.953 58.3867 238.686 59.52 238.686 60.8ZM256.348 51.6H259.548V58.8H269.748V51.6H272.948V70H269.748V61.8H259.548V70H256.348V51.6ZM277.365 60.8C277.365 58.9333 277.778 57.28 278.605 55.84C279.458 54.4 280.605 53.2667 282.045 52.44C283.485 51.6133 285.098 51.2 286.885 51.2C288.698 51.2 290.312 51.6133 291.725 52.44C293.165 53.2667 294.298 54.4 295.125 55.84C295.978 57.28 296.405 58.9333 296.405 60.8C296.405 62.64 295.978 64.2933 295.125 65.76C294.298 67.2 293.165 68.3333 291.725 69.16C290.312 69.9867 288.698 70.4 286.885 70.4C285.098 70.4 283.485 69.9867 282.045 69.16C280.605 68.3333 279.458 67.2 278.605 65.76C277.778 64.2933 277.365 62.64 277.365 60.8ZM280.605 60.8C280.605 62.08 280.872 63.2133 281.405 64.2C281.965 65.1867 282.712 65.9733 283.645 66.56C284.605 67.12 285.685 67.4 286.885 67.4C288.085 67.4 289.152 67.12 290.085 66.56C291.045 65.9733 291.792 65.1867 292.325 64.2C292.885 63.2133 293.165 62.08 293.165 60.8C293.165 59.52 292.885 58.3867 292.325 57.4C291.792 56.3867 291.045 55.6 290.085 55.04C289.152 54.48 288.085 54.2 286.885 54.2C285.685 54.2 284.605 54.48 283.645 55.04C282.712 55.6 281.965 56.3867 281.405 57.4C280.872 58.3867 280.605 59.52 280.605 60.8ZM298.001 51.6H308.801V54.6H305.001V70H301.801V54.6H298.001V51.6ZM312.012 51.6H315.212V58.56H319.612C321.505 58.56 323.092 59.0267 324.372 59.96C325.678 60.8667 326.332 62.3067 326.332 64.28C326.332 66.2533 325.678 67.7067 324.372 68.64C323.092 69.5467 321.505 70 319.612 70H312.012V51.6ZM319.612 61.36H315.212V67.2H319.612C320.785 67.2 321.665 66.9467 322.252 66.44C322.838 65.9067 323.132 65.1867 323.132 64.28C323.132 63.3467 322.838 62.6267 322.252 62.12C321.665 61.6133 320.785 61.36 319.612 61.36Z" fill="#41A4FF"/>
<defs>
<filter id="filter0_dd" x="0.76001" y="0.0400391" width="196.092" height="113.84" filterUnits="userSpaceOnUse" color-interpolation-filters="sRGB">
<feFlood flood-opacity="0" result="BackgroundImageFix"/>
<feColorMatrix in="SourceAlpha" type="matrix" values="0 0 0 0 0 0 0 0 0 0 0 0 0 0 0 0 0 0 127 0"/>
<feOffset dy="4"/>
<feGaussianBlur stdDeviation="2"/>
<feColorMatrix type="matrix" values="0 0 0 0 0 0 0 0 0 0 0 0 0 0 0 0 0 0 0.25 0"/>
<feBlend mode="normal" in2="BackgroundImageFix" result="effect1_dropShadow"/>
<feColorMatrix in="SourceAlpha" type="matrix" values="0 0 0 0 0 0 0 0 0 0 0 0 0 0 0 0 0 0 127 0"/>
<feOffset dy="4"/>
<feGaussianBlur stdDeviation="2"/>
<feColorMatrix type="matrix" values="0 0 0 0 0 0 0 0 0 0 0 0 0 0 0 0 0 0 0.25 0"/>
<feBlend mode="normal" in2="effect1_dropShadow" result="effect2_dropShadow"/>
<feBlend mode="normal" in="SourceGraphic" in2="effect2_dropShadow" result="shape"/>
</filter>
</defs>
</svg>
