<svg width="287" height="114" viewBox="0 0 287 114" fill="none" xmlns="http://www.w3.org/2000/svg">
<g filter="url(#filter0_dd)">
<path d="M4.76 52.6C4.76 41.08 6.632 31.432 10.376 23.656C14.12 15.88 19.352 10.024 26.072 6.08799C32.792 2.05599 40.568 0.0399952 49.4 0.0399952C63.416 0.0399952 74.36 4.50399 82.232 13.432C90.104 22.36 94.04 35.416 94.04 52.6C94.04 69.784 90.104 82.84 82.232 91.768C74.36 100.696 63.416 105.16 49.4 105.16C40.568 105.16 32.792 103.192 26.072 99.256C19.352 95.224 14.12 89.32 10.376 81.544C6.632 73.768 4.76 64.12 4.76 52.6ZM35 52.6C35 60.76 36.344 67.144 39.032 71.752C41.816 76.264 45.272 78.52 49.4 78.52C53.624 78.52 57.08 76.264 59.768 71.752C62.456 67.144 63.8 60.76 63.8 52.6C63.8 44.44 62.456 38.104 59.768 33.592C57.08 28.984 53.624 26.68 49.4 26.68C45.272 26.68 41.816 28.984 39.032 33.592C36.344 38.104 35 44.44 35 52.6ZM148.5 105.88C141.684 105.88 135.588 104.824 130.212 102.712C124.932 100.6 120.468 97.72 116.82 94.072C113.172 90.424 110.388 86.344 108.468 81.832C106.548 77.224 105.588 72.52 105.588 67.72H136.692C136.692 71.08 137.316 73.768 138.564 75.784C139.908 77.8 141.588 79.24 143.604 80.104C145.716 80.968 147.828 81.4 149.94 81.4C153.204 81.4 155.988 80.776 158.292 79.528C160.596 78.184 161.748 75.688 161.748 72.04C161.748 70.024 161.124 68.152 159.876 66.424C158.724 64.696 156.66 63.304 153.684 62.248C150.708 61.096 146.58 60.52 141.3 60.52V41.944C146.388 41.944 150.564 40.84 153.828 38.632C157.188 36.424 158.868 33.832 158.868 30.856C158.868 28.936 158.1 27.4 156.564 26.248C155.124 25.096 152.868 24.52 149.796 24.52C146.532 24.52 143.892 25.432 141.876 27.256C139.86 29.08 138.852 31.48 138.852 34.456H109.908C109.908 28.024 111.54 22.216 114.804 17.032C118.068 11.848 122.676 7.72 128.628 4.648C134.676 1.576 141.78 0.0399952 149.94 0.0399952C158.58 0.0399952 165.876 1.288 171.828 3.784C177.78 6.27999 182.292 9.68799 185.364 14.008C188.436 18.328 189.972 23.224 189.972 28.696C189.972 33.976 188.436 38.344 185.364 41.8C182.388 45.256 178.308 47.992 173.124 50.008C179.364 52.312 184.212 55.528 187.668 59.656C191.124 63.688 192.852 68.776 192.852 74.92C192.852 80.872 191.124 86.2 187.668 90.904C184.308 95.512 179.316 99.16 172.692 101.848C166.164 104.536 158.1 105.88 148.5 105.88Z" fill="#E1EBFF"/>
</g>
<path d="M139.059 42H154.059V45.2H142.459V53.2H146.659C148.473 53.2 150.086 53.5467 151.499 54.24C152.939 54.9067 154.073 55.8667 154.899 57.12C155.753 58.3733 156.179 59.8667 156.179 61.6C156.179 63.3067 155.753 64.8 154.899 66.08C154.073 67.3333 152.939 68.3067 151.499 69C150.086 69.6667 148.473 70 146.659 70H139.059V42ZM146.659 56.4H142.459V66.8H146.659C148.473 66.8 149.939 66.36 151.059 65.48C152.206 64.6 152.779 63.3067 152.779 61.6C152.779 59.8667 152.206 58.5733 151.059 57.72C149.939 56.84 148.473 56.4 146.659 56.4ZM177.373 51.6H180.573V70H177.373V51.6ZM160.773 51.6H163.973V58.56H168.373C170.267 58.56 171.853 59.0267 173.133 59.96C174.44 60.8667 175.093 62.3067 175.093 64.28C175.093 66.2533 174.44 67.7067 173.133 68.64C171.853 69.5467 170.267 70 168.373 70H160.773V51.6ZM168.373 61.36H163.973V67.2H168.373C169.547 67.2 170.427 66.9467 171.013 66.44C171.6 65.9067 171.893 65.1867 171.893 64.28C171.893 63.3467 171.6 62.6267 171.013 62.12C170.427 61.6133 169.547 61.36 168.373 61.36ZM187.995 60.8C187.995 62.08 188.261 63.2133 188.795 64.2C189.355 65.1867 190.101 65.9733 191.035 66.56C191.995 67.12 193.075 67.4 194.275 67.4C195.768 67.4 197.101 67.0667 198.275 66.4C199.448 65.7333 200.248 64.9467 200.675 64.04V68.04C200.035 68.7867 199.115 69.3733 197.915 69.8C196.741 70.2 195.528 70.4 194.275 70.4C192.488 70.4 190.875 69.9867 189.435 69.16C187.995 68.3333 186.848 67.2 185.995 65.76C185.168 64.2933 184.755 62.64 184.755 60.8C184.755 58.9333 185.168 57.28 185.995 55.84C186.848 54.4 187.995 53.2667 189.435 52.44C190.875 51.6133 192.488 51.2 194.275 51.2C195.528 51.2 196.741 51.4133 197.915 51.84C199.115 52.24 200.035 52.8133 200.675 53.56V57.56C200.248 56.6533 199.448 55.8667 198.275 55.2C197.101 54.5333 195.768 54.2 194.275 54.2C193.075 54.2 191.995 54.48 191.035 55.04C190.101 55.6 189.355 56.3867 188.795 57.4C188.261 58.3867 187.995 59.52 187.995 60.8ZM202.856 51.6H213.656V54.6H209.856V70H206.656V54.6H202.856V51.6ZM219.867 78.8H216.667V51.6H219.867V54.76C220.534 53.6133 221.401 52.7333 222.467 52.12C223.561 51.5067 224.787 51.2 226.147 51.2C227.827 51.2 229.347 51.5867 230.707 52.36C232.094 53.1333 233.201 54.24 234.027 55.68C234.854 57.0933 235.267 58.8 235.267 60.8C235.267 62.7733 234.854 64.48 234.027 65.92C233.201 67.36 232.094 68.4667 230.707 69.24C229.347 70.0133 227.827 70.4 226.147 70.4C224.787 70.4 223.561 70.0933 222.467 69.48C221.401 68.8667 220.534 67.9867 219.867 66.84V78.8ZM232.027 60.8C232.027 59.3867 231.734 58.1867 231.147 57.2C230.587 56.2133 229.827 55.4667 228.867 54.96C227.934 54.4533 226.894 54.2 225.747 54.2C224.814 54.2 223.894 54.4533 222.987 54.96C222.081 55.4667 221.334 56.2133 220.747 57.2C220.161 58.1867 219.867 59.3867 219.867 60.8C219.867 62.2133 220.161 63.4133 220.747 64.4C221.334 65.3867 222.081 66.1333 222.987 66.64C223.894 67.1467 224.814 67.4 225.747 67.4C226.894 67.4 227.934 67.1467 228.867 66.64C229.827 66.1333 230.587 65.3867 231.147 64.4C231.734 63.4133 232.027 62.2133 232.027 60.8ZM238.08 60.8C238.08 58.9333 238.493 57.28 239.32 55.84C240.173 54.4 241.32 53.2667 242.76 52.44C244.2 51.6133 245.813 51.2 247.6 51.2C249.413 51.2 251.026 51.6133 252.44 52.44C253.88 53.2667 255.013 54.4 255.84 55.84C256.693 57.28 257.12 58.9333 257.12 60.8C257.12 62.64 256.693 64.2933 255.84 65.76C255.013 67.2 253.88 68.3333 252.44 69.16C251.026 69.9867 249.413 70.4 247.6 70.4C245.813 70.4 244.2 69.9867 242.76 69.16C241.32 68.3333 240.173 67.2 239.32 65.76C238.493 64.2933 238.08 62.64 238.08 60.8ZM241.32 60.8C241.32 62.08 241.586 63.2133 242.12 64.2C242.68 65.1867 243.426 65.9733 244.36 66.56C245.32 67.12 246.4 67.4 247.6 67.4C248.8 67.4 249.866 67.12 250.8 66.56C251.76 65.9733 252.506 65.1867 253.04 64.2C253.6 63.2133 253.88 62.08 253.88 60.8C253.88 59.52 253.6 58.3867 253.04 57.4C252.506 56.3867 251.76 55.6 250.8 55.04C249.866 54.48 248.8 54.2 247.6 54.2C246.4 54.2 245.32 54.48 244.36 55.04C243.426 55.6 242.68 56.3867 242.12 57.4C241.586 58.3867 241.32 59.52 241.32 60.8ZM258.716 51.6H269.516V54.6H265.716V70H262.516V54.6H258.716V51.6ZM274.167 55.92L272.607 53.48C273.3 52.9733 274.233 52.4667 275.407 51.96C276.58 51.4533 277.993 51.2 279.647 51.2C281.753 51.2 283.46 51.6933 284.767 52.68C286.073 53.64 286.727 55.0133 286.727 56.8V70H283.527V67.36C282.967 68.3467 282.127 69.1067 281.007 69.64C279.887 70.1467 278.633 70.4 277.247 70.4C276.1 70.4 275.047 70.1867 274.087 69.76C273.127 69.3333 272.353 68.7067 271.767 67.88C271.207 67.0267 270.927 65.9733 270.927 64.72C270.927 62.7733 271.62 61.2667 273.007 60.2C274.42 59.1067 276.34 58.56 278.767 58.56C279.833 58.56 280.767 58.6933 281.567 58.96C282.367 59.2267 283.02 59.5333 283.527 59.88V56.8C283.527 55.8667 283.127 55.1733 282.327 54.72C281.553 54.24 280.66 54 279.647 54C278.34 54 277.207 54.24 276.247 54.72C275.313 55.2 274.62 55.6 274.167 55.92ZM274.167 64.6C274.167 65.5867 274.54 66.3333 275.287 66.84C276.06 67.32 276.98 67.56 278.047 67.56C279.647 67.56 280.953 67.2 281.967 66.48C283.007 65.7333 283.527 64.5067 283.527 62.8V62.08C282.167 61.36 280.633 61 278.927 61C277.3 61 276.1 61.32 275.327 61.96C274.553 62.6 274.167 63.48 274.167 64.6Z" fill="#2682EF"/>
<defs>
<filter id="filter0_dd" x="0.76001" y="0.0400391" width="196.092" height="113.84" filterUnits="userSpaceOnUse" color-interpolation-filters="sRGB">
<feFlood flood-opacity="0" result="BackgroundImageFix"/>
<feColorMatrix in="SourceAlpha" type="matrix" values="0 0 0 0 0 0 0 0 0 0 0 0 0 0 0 0 0 0 127 0"/>
<feOffset dy="4"/>
<feGaussianBlur stdDeviation="2"/>
<feColorMatrix type="matrix" values="0 0 0 0 0 0 0 0 0 0 0 0 0 0 0 0 0 0 0.25 0"/>
<feBlend mode="normal" in2="BackgroundImageFix" result="effect1_dropShadow"/>
<feColorMatrix in="SourceAlpha" type="matrix" values="0 0 0 0 0 0 0 0 0 0 0 0 0 0 0 0 0 0 127 0"/>
<feOffset dy="4"/>
<feGaussianBlur stdDeviation="2"/>
<feColorMatrix type="matrix" values="0 0 0 0 0 0 0 0 0 0 0 0 0 0 0 0 0 0 0.25 0"/>
<feBlend mode="normal" in2="effect1_dropShadow" result="effect2_dropShadow"/>
<feBlend mode="normal" in="SourceGraphic" in2="effect2_dropShadow" result="shape"/>
</filter>
</defs>
</svg>
