<svg width="287" height="114" viewBox="0 0 287 114" fill="none" xmlns="http://www.w3.org/2000/svg">
<g filter="url(#filter0_dd)">
<path d="M4.76 52.6C4.76 41.08 6.632 31.432 10.376 23.656C14.12 15.88 19.352 10.024 26.072 6.08799C32.792 2.05599 40.568 0.0399952 49.4 0.0399952C63.416 0.0399952 74.36 4.50399 82.232 13.432C90.104 22.36 94.04 35.416 94.04 52.6C94.04 69.784 90.104 82.84 82.232 91.768C74.36 100.696 63.416 105.16 49.4 105.16C40.568 105.16 32.792 103.192 26.072 99.256C19.352 95.224 14.12 89.32 10.376 81.544C6.632 73.768 4.76 64.12 4.76 52.6ZM35 52.6C35 60.76 36.344 67.144 39.032 71.752C41.816 76.264 45.272 78.52 49.4 78.52C53.624 78.52 57.08 76.264 59.768 71.752C62.456 67.144 63.8 60.76 63.8 52.6C63.8 44.44 62.456 38.104 59.768 33.592C57.08 28.984 53.624 26.68 49.4 26.68C45.272 26.68 41.816 28.984 39.032 33.592C36.344 38.104 35 44.44 35 52.6ZM101.268 86.44L161.46 2.19999H187.38V59.8H203.22V86.44H187.38V103H154.26V86.44H101.268ZM140.868 64.84H158.58V42.376L140.868 64.84Z" fill="#E1EBFF"/>
</g>
<path d="M145.036 39H158.836V42.2H148.436V67H145.036V39ZM162.416 48.6V60.52L174.616 47.2V67H171.416V55.08L159.216 68.4V48.6H162.416ZM179.213 55.4C179.213 52.8933 179.453 50.68 179.933 48.76C180.413 46.84 181.253 45.2133 182.453 43.88C183.679 42.5467 185.359 41.5067 187.493 40.76C189.306 40.1467 190.653 39.4133 191.533 38.56C192.439 37.68 192.986 36.76 193.173 35.8H196.333C196.146 37.5867 195.306 39.12 193.813 40.4C192.319 41.68 190.479 42.6667 188.293 43.36C186.746 43.8667 185.533 44.6 184.653 45.56C183.773 46.52 183.133 47.6133 182.733 48.84C182.333 50.04 182.106 51.2667 182.053 52.52C182.693 51.1333 183.586 50.0667 184.733 49.32C185.906 48.5733 187.239 48.2 188.733 48.2C190.546 48.2 192.159 48.6133 193.573 49.44C195.013 50.2667 196.146 51.4 196.973 52.84C197.826 54.28 198.253 55.9333 198.253 57.8C198.253 59.64 197.826 61.2933 196.973 62.76C196.146 64.2 195.013 65.3333 193.573 66.16C192.159 66.9867 190.546 67.4 188.733 67.4C186.946 67.4 185.333 66.96 183.893 66.08C182.453 65.1733 181.306 63.8267 180.452 62.04C179.626 60.2533 179.213 58.04 179.213 55.4ZM182.413 57.8C182.413 59.08 182.693 60.2133 183.253 61.2C183.813 62.1867 184.559 62.9733 185.493 63.56C186.453 64.12 187.533 64.4 188.733 64.4C189.933 64.4 190.999 64.12 191.933 63.56C192.893 62.9733 193.639 62.1867 194.173 61.2C194.733 60.2133 195.013 59.08 195.013 57.8C195.013 56.52 194.733 55.3867 194.173 54.4C193.639 53.3867 192.893 52.6 191.933 52.04C190.999 51.48 189.933 51.2 188.733 51.2C187.799 51.2 186.839 51.4533 185.853 51.96C184.893 52.4667 184.079 53.2133 183.413 54.2C182.746 55.1867 182.413 56.3867 182.413 57.8ZM202.448 48.6H205.648V55.04L212.448 48.6H216.448L208.448 56.2L217.248 67H213.248L205.648 57.68V67H202.448V48.6ZM218.08 57.8C218.08 55.9333 218.493 54.28 219.32 52.84C220.173 51.4 221.32 50.2667 222.76 49.44C224.2 48.6133 225.813 48.2 227.6 48.2C229.413 48.2 231.026 48.6133 232.44 49.44C233.88 50.2667 235.013 51.4 235.84 52.84C236.693 54.28 237.12 55.9333 237.12 57.8C237.12 59.64 236.693 61.2933 235.84 62.76C235.013 64.2 233.88 65.3333 232.44 66.16C231.026 66.9867 229.413 67.4 227.6 67.4C225.813 67.4 224.2 66.9867 222.76 66.16C221.32 65.3333 220.173 64.2 219.32 62.76C218.493 61.2933 218.08 59.64 218.08 57.8ZM221.32 57.8C221.32 59.08 221.586 60.2133 222.12 61.2C222.68 62.1867 223.426 62.9733 224.36 63.56C225.32 64.12 226.4 64.4 227.6 64.4C228.8 64.4 229.866 64.12 230.8 63.56C231.76 62.9733 232.506 62.1867 233.04 61.2C233.6 60.2133 233.88 59.08 233.88 57.8C233.88 56.52 233.6 55.3867 233.04 54.4C232.506 53.3867 231.76 52.6 230.8 52.04C229.866 51.48 228.8 51.2 227.6 51.2C226.4 51.2 225.32 51.48 224.36 52.04C223.426 52.6 222.68 53.3867 222.12 54.4C221.586 55.3867 221.32 56.52 221.32 57.8ZM242.956 57.8C242.956 59.08 243.222 60.2133 243.756 61.2C244.316 62.1867 245.062 62.9733 245.996 63.56C246.956 64.12 248.036 64.4 249.236 64.4C250.729 64.4 252.062 64.0667 253.236 63.4C254.409 62.7333 255.209 61.9467 255.636 61.04V65.04C254.996 65.7867 254.076 66.3733 252.876 66.8C251.702 67.2 250.489 67.4 249.236 67.4C247.449 67.4 245.836 66.9867 244.396 66.16C242.956 65.3333 241.809 64.2 240.956 62.76C240.129 61.2933 239.716 59.64 239.716 57.8C239.716 55.9333 240.129 54.28 240.956 52.84C241.809 51.4 242.956 50.2667 244.396 49.44C245.836 48.6133 247.449 48.2 249.236 48.2C250.489 48.2 251.702 48.4133 252.876 48.84C254.076 49.24 254.996 49.8133 255.636 50.56V54.56C255.209 53.6533 254.409 52.8667 253.236 52.2C252.062 51.5333 250.729 51.2 249.236 51.2C248.036 51.2 246.956 51.48 245.996 52.04C245.062 52.6 244.316 53.3867 243.756 54.4C243.222 55.3867 242.956 56.52 242.956 57.8ZM257.817 48.6H268.617V51.6H264.817V67H261.617V51.6H257.817V48.6ZM271.828 48.6H275.028V55.56H279.428C281.321 55.56 282.908 56.0267 284.188 56.96C285.495 57.8667 286.148 59.3067 286.148 61.28C286.148 63.2533 285.495 64.7067 284.188 65.64C282.908 66.5467 281.321 67 279.428 67H271.828V48.6ZM279.428 58.36H275.028V64.2H279.428C280.601 64.2 281.481 63.9467 282.068 63.44C282.655 62.9067 282.948 62.1867 282.948 61.28C282.948 60.3467 282.655 59.6267 282.068 59.12C281.481 58.6133 280.601 58.36 279.428 58.36Z" fill="#2682EF"/>
<defs>
<filter id="filter0_dd" x="0.76001" y="0.0400391" width="206.46" height="113.12" filterUnits="userSpaceOnUse" color-interpolation-filters="sRGB">
<feFlood flood-opacity="0" result="BackgroundImageFix"/>
<feColorMatrix in="SourceAlpha" type="matrix" values="0 0 0 0 0 0 0 0 0 0 0 0 0 0 0 0 0 0 127 0"/>
<feOffset dy="4"/>
<feGaussianBlur stdDeviation="2"/>
<feColorMatrix type="matrix" values="0 0 0 0 0 0 0 0 0 0 0 0 0 0 0 0 0 0 0.25 0"/>
<feBlend mode="normal" in2="BackgroundImageFix" result="effect1_dropShadow"/>
<feColorMatrix in="SourceAlpha" type="matrix" values="0 0 0 0 0 0 0 0 0 0 0 0 0 0 0 0 0 0 127 0"/>
<feOffset dy="4"/>
<feGaussianBlur stdDeviation="2"/>
<feColorMatrix type="matrix" values="0 0 0 0 0 0 0 0 0 0 0 0 0 0 0 0 0 0 0.25 0"/>
<feBlend mode="normal" in2="effect1_dropShadow" result="effect2_dropShadow"/>
<feBlend mode="normal" in="SourceGraphic" in2="effect2_dropShadow" result="shape"/>
</filter>
</defs>
</svg>
