<svg width="284" height="115" viewBox="0 0 284 115" fill="none" xmlns="http://www.w3.org/2000/svg">
<g filter="url(#filter0_dd)">
<path d="M4.76 53.6C4.76 42.08 6.632 32.432 10.376 24.656C14.12 16.88 19.352 11.024 26.072 7.08799C32.792 3.05599 40.568 1.04 49.4 1.04C63.416 1.04 74.36 5.50399 82.232 14.432C90.104 23.36 94.04 36.416 94.04 53.6C94.04 70.784 90.104 83.84 82.232 92.768C74.36 101.696 63.416 106.16 49.4 106.16C40.568 106.16 32.792 104.192 26.072 100.256C19.352 96.224 14.12 90.32 10.376 82.544C6.632 74.768 4.76 65.12 4.76 53.6ZM35 53.6C35 61.76 36.344 68.144 39.032 72.752C41.816 77.264 45.272 79.52 49.4 79.52C53.624 79.52 57.08 77.264 59.768 72.752C62.456 68.144 63.8 61.76 63.8 53.6C63.8 45.44 62.456 39.104 59.768 34.592C57.08 29.984 53.624 27.68 49.4 27.68C45.272 27.68 41.816 29.984 39.032 34.592C36.344 39.104 35 45.44 35 53.6ZM102.708 104L146.052 60.08C150.564 55.28 154.068 51.248 156.564 47.984C159.156 44.624 160.452 40.976 160.452 37.04C160.452 34.544 159.636 32.336 158.004 30.416C156.372 28.496 153.732 27.536 150.084 27.536C146.532 27.536 143.604 28.976 141.3 31.856C139.092 34.64 137.988 38.048 137.988 42.08H107.028C107.028 34.88 108.66 28.16 111.924 21.92C115.188 15.68 120.084 10.64 126.612 6.8C133.236 2.864 141.444 0.895997 151.236 0.895997C160.164 0.895997 167.748 2.528 173.988 5.79199C180.228 9.056 184.98 13.28 188.244 18.464C191.604 23.552 193.284 28.976 193.284 34.736C193.284 40.304 191.892 45.248 189.108 49.568C186.324 53.792 182.628 57.68 178.02 61.232L159.876 75.2H196.884V104H102.708Z" fill="#E1EBFF"/>
</g>
<path d="M129.927 57C129.927 59.16 130.407 61.0667 131.367 62.72C132.353 64.3733 133.633 65.6667 135.207 66.6C136.78 67.5333 138.487 68 140.327 68C142.3 68 144.047 67.6133 145.567 66.84C147.087 66.0667 148.34 65.0667 149.327 63.84V68.32C148.153 69.36 146.873 70.1333 145.487 70.64C144.1 71.1467 142.38 71.4 140.327 71.4C138.38 71.4 136.553 71.0533 134.847 70.36C133.167 69.64 131.687 68.64 130.407 67.36C129.127 66.0533 128.127 64.52 127.407 62.76C126.687 61 126.327 59.08 126.327 57C126.327 54.92 126.687 53 127.407 51.24C128.127 49.48 129.127 47.96 130.407 46.68C131.687 45.3733 133.167 44.3733 134.847 43.68C136.553 42.96 138.38 42.6 140.327 42.6C142.38 42.6 144.1 42.8533 145.487 43.36C146.873 43.8667 148.153 44.64 149.327 45.68V50.16C148.34 48.9067 147.087 47.9067 145.567 47.16C144.047 46.3867 142.3 46 140.327 46C138.487 46 136.78 46.4667 135.207 47.4C133.633 48.3333 132.353 49.6267 131.367 51.28C130.407 52.9067 129.927 54.8133 129.927 57ZM154.909 52.6H158.109V59.04L164.909 52.6H168.909L160.909 60.2L169.709 71H165.709L158.109 61.68V71H154.909V52.6ZM170.541 61.8C170.541 59.9333 170.954 58.28 171.781 56.84C172.634 55.4 173.781 54.2667 175.221 53.44C176.661 52.6133 178.274 52.2 180.061 52.2C181.874 52.2 183.487 52.6133 184.901 53.44C186.341 54.2667 187.474 55.4 188.301 56.84C189.154 58.28 189.581 59.9333 189.581 61.8C189.581 63.64 189.154 65.2933 188.301 66.76C187.474 68.2 186.341 69.3333 184.901 70.16C183.487 70.9867 181.874 71.4 180.061 71.4C178.274 71.4 176.661 70.9867 175.221 70.16C173.781 69.3333 172.634 68.2 171.781 66.76C170.954 65.2933 170.541 63.64 170.541 61.8ZM173.781 61.8C173.781 63.08 174.047 64.2133 174.581 65.2C175.141 66.1867 175.887 66.9733 176.821 67.56C177.781 68.12 178.861 68.4 180.061 68.4C181.261 68.4 182.327 68.12 183.261 67.56C184.221 66.9733 184.967 66.1867 185.501 65.2C186.061 64.2133 186.341 63.08 186.341 61.8C186.341 60.52 186.061 59.3867 185.501 58.4C184.967 57.3867 184.221 56.6 183.261 56.04C182.327 55.48 181.261 55.2 180.061 55.2C178.861 55.2 177.781 55.48 176.821 56.04C175.887 56.6 175.141 57.3867 174.581 58.4C174.047 59.3867 173.781 60.52 173.781 61.8ZM196.977 79.8H193.777V52.6H196.977V55.76C197.643 54.6133 198.51 53.7333 199.577 53.12C200.67 52.5067 201.897 52.2 203.257 52.2C204.937 52.2 206.457 52.5867 207.817 53.36C209.203 54.1333 210.31 55.24 211.137 56.68C211.963 58.0933 212.377 59.8 212.377 61.8C212.377 63.7733 211.963 65.48 211.137 66.92C210.31 68.36 209.203 69.4667 207.817 70.24C206.457 71.0133 204.937 71.4 203.257 71.4C201.897 71.4 200.67 71.0933 199.577 70.48C198.51 69.8667 197.643 68.9867 196.977 67.84V79.8ZM209.137 61.8C209.137 60.3867 208.843 59.1867 208.257 58.2C207.697 57.2133 206.937 56.4667 205.977 55.96C205.043 55.4533 204.003 55.2 202.857 55.2C201.923 55.2 201.003 55.4533 200.097 55.96C199.19 56.4667 198.443 57.2133 197.857 58.2C197.27 59.1867 196.977 60.3867 196.977 61.8C196.977 63.2133 197.27 64.4133 197.857 65.4C198.443 66.3867 199.19 67.1333 200.097 67.64C201.003 68.1467 201.923 68.4 202.857 68.4C204.003 68.4 205.043 68.1467 205.977 67.64C206.937 67.1333 207.697 66.3867 208.257 65.4C208.843 64.4133 209.137 63.2133 209.137 61.8ZM215.189 61.8C215.189 59.9333 215.602 58.28 216.429 56.84C217.282 55.4 218.429 54.2667 219.869 53.44C221.309 52.6133 222.922 52.2 224.709 52.2C226.522 52.2 228.136 52.6133 229.549 53.44C230.989 54.2667 232.122 55.4 232.949 56.84C233.802 58.28 234.229 59.9333 234.229 61.8C234.229 63.64 233.802 65.2933 232.949 66.76C232.122 68.2 230.989 69.3333 229.549 70.16C228.136 70.9867 226.522 71.4 224.709 71.4C222.922 71.4 221.309 70.9867 219.869 70.16C218.429 69.3333 217.282 68.2 216.429 66.76C215.602 65.2933 215.189 63.64 215.189 61.8ZM218.429 61.8C218.429 63.08 218.696 64.2133 219.229 65.2C219.789 66.1867 220.536 66.9733 221.469 67.56C222.429 68.12 223.509 68.4 224.709 68.4C225.909 68.4 226.976 68.12 227.909 67.56C228.869 66.9733 229.616 66.1867 230.149 65.2C230.709 64.2133 230.989 63.08 230.989 61.8C230.989 60.52 230.709 59.3867 230.149 58.4C229.616 57.3867 228.869 56.6 227.909 56.04C226.976 55.48 225.909 55.2 224.709 55.2C223.509 55.2 222.429 55.48 221.469 56.04C220.536 56.6 219.789 57.3867 219.229 58.4C218.696 59.3867 218.429 60.52 218.429 61.8ZM240.065 61.8C240.065 63.08 240.332 64.2133 240.865 65.2C241.425 66.1867 242.172 66.9733 243.105 67.56C244.065 68.12 245.145 68.4 246.345 68.4C247.838 68.4 249.172 68.0667 250.345 67.4C251.518 66.7333 252.318 65.9467 252.745 65.04V69.04C252.105 69.7867 251.185 70.3733 249.985 70.8C248.812 71.2 247.598 71.4 246.345 71.4C244.558 71.4 242.945 70.9867 241.505 70.16C240.065 69.3333 238.918 68.2 238.065 66.76C237.238 65.2933 236.825 63.64 236.825 61.8C236.825 59.9333 237.238 58.28 238.065 56.84C238.918 55.4 240.065 54.2667 241.505 53.44C242.945 52.6133 244.558 52.2 246.345 52.2C247.598 52.2 248.812 52.4133 249.985 52.84C251.185 53.24 252.105 53.8133 252.745 54.56V58.56C252.318 57.6533 251.518 56.8667 250.345 56.2C249.172 55.5333 247.838 55.2 246.345 55.2C245.145 55.2 244.065 55.48 243.105 56.04C242.172 56.6 241.425 57.3867 240.865 58.4C240.332 59.3867 240.065 60.52 240.065 61.8ZM254.927 52.6H265.727V55.6H261.927V71H258.727V55.6H254.927V52.6ZM268.938 52.6H272.138V59.56H276.538C278.431 59.56 280.018 60.0267 281.298 60.96C282.604 61.8667 283.258 63.3067 283.258 65.28C283.258 67.2533 282.604 68.7067 281.298 69.64C280.018 70.5467 278.431 71 276.538 71H268.938V52.6ZM276.538 62.36H272.138V68.2H276.538C277.711 68.2 278.591 67.9467 279.178 67.44C279.764 66.9067 280.058 66.1867 280.058 65.28C280.058 64.3467 279.764 63.6267 279.178 63.12C278.591 62.6133 277.711 62.36 276.538 62.36Z" fill="#41A4FF"/>
<defs>
<filter id="filter0_dd" x="0.76001" y="0.896484" width="200.124" height="113.264" filterUnits="userSpaceOnUse" color-interpolation-filters="sRGB">
<feFlood flood-opacity="0" result="BackgroundImageFix"/>
<feColorMatrix in="SourceAlpha" type="matrix" values="0 0 0 0 0 0 0 0 0 0 0 0 0 0 0 0 0 0 127 0"/>
<feOffset dy="4"/>
<feGaussianBlur stdDeviation="2"/>
<feColorMatrix type="matrix" values="0 0 0 0 0 0 0 0 0 0 0 0 0 0 0 0 0 0 0.25 0"/>
<feBlend mode="normal" in2="BackgroundImageFix" result="effect1_dropShadow"/>
<feColorMatrix in="SourceAlpha" type="matrix" values="0 0 0 0 0 0 0 0 0 0 0 0 0 0 0 0 0 0 127 0"/>
<feOffset dy="4"/>
<feGaussianBlur stdDeviation="2"/>
<feColorMatrix type="matrix" values="0 0 0 0 0 0 0 0 0 0 0 0 0 0 0 0 0 0 0.25 0"/>
<feBlend mode="normal" in2="effect1_dropShadow" result="effect2_dropShadow"/>
<feBlend mode="normal" in="SourceGraphic" in2="effect2_dropShadow" result="shape"/>
</filter>
</defs>
</svg>
