<svg width="246" height="114" viewBox="0 0 246 114" fill="none" xmlns="http://www.w3.org/2000/svg">
<g filter="url(#filter0_dd)">
<path d="M4.76 52.6C4.76 41.08 6.632 31.432 10.376 23.656C14.12 15.88 19.352 10.024 26.072 6.08799C32.792 2.05599 40.568 0.0399952 49.4 0.0399952C63.416 0.0399952 74.36 4.50399 82.232 13.432C90.104 22.36 94.04 35.416 94.04 52.6C94.04 69.784 90.104 82.84 82.232 91.768C74.36 100.696 63.416 105.16 49.4 105.16C40.568 105.16 32.792 103.192 26.072 99.256C19.352 95.224 14.12 89.32 10.376 81.544C6.632 73.768 4.76 64.12 4.76 52.6ZM35 52.6C35 60.76 36.344 67.144 39.032 71.752C41.816 76.264 45.272 78.52 49.4 78.52C53.624 78.52 57.08 76.264 59.768 71.752C62.456 67.144 63.8 60.76 63.8 52.6C63.8 44.44 62.456 38.104 59.768 33.592C57.08 28.984 53.624 26.68 49.4 26.68C45.272 26.68 41.816 28.984 39.032 33.592C36.344 38.104 35 44.44 35 52.6ZM101.268 86.44L161.46 2.19999H187.38V59.8H203.22V86.44H187.38V103H154.26V86.44H101.268ZM140.868 64.84H158.58V42.376L140.868 64.84Z" fill="#E1EBFF"/>
</g>
<path d="M104.036 42H117.836V45.2H107.436V70H104.036V42ZM121.416 51.6V63.52L133.616 50.2V70H130.416V58.08L118.216 71.4V51.6H121.416ZM138.213 58.4C138.213 55.8933 138.453 53.68 138.933 51.76C139.413 49.84 140.253 48.2133 141.453 46.88C142.679 45.5467 144.359 44.5067 146.493 43.76C148.306 43.1467 149.653 42.4133 150.533 41.56C151.439 40.68 151.986 39.76 152.173 38.8H155.333C155.146 40.5867 154.306 42.12 152.813 43.4C151.319 44.68 149.479 45.6667 147.293 46.36C145.746 46.8667 144.533 47.6 143.653 48.56C142.773 49.52 142.133 50.6133 141.733 51.84C141.333 53.04 141.106 54.2667 141.053 55.52C141.693 54.1333 142.586 53.0667 143.733 52.32C144.906 51.5733 146.239 51.2 147.733 51.2C149.546 51.2 151.159 51.6133 152.573 52.44C154.013 53.2667 155.146 54.4 155.973 55.84C156.826 57.28 157.253 58.9333 157.253 60.8C157.253 62.64 156.826 64.2933 155.973 65.76C155.146 67.2 154.013 68.3333 152.573 69.16C151.159 69.9867 149.546 70.4 147.733 70.4C145.946 70.4 144.333 69.96 142.893 69.08C141.453 68.1733 140.306 66.8267 139.452 65.04C138.626 63.2533 138.213 61.04 138.213 58.4ZM141.413 60.8C141.413 62.08 141.693 63.2133 142.253 64.2C142.813 65.1867 143.559 65.9733 144.493 66.56C145.453 67.12 146.533 67.4 147.733 67.4C148.933 67.4 149.999 67.12 150.933 66.56C151.893 65.9733 152.639 65.1867 153.173 64.2C153.733 63.2133 154.013 62.08 154.013 60.8C154.013 59.52 153.733 58.3867 153.173 57.4C152.639 56.3867 151.893 55.6 150.933 55.04C149.999 54.48 148.933 54.2 147.733 54.2C146.799 54.2 145.839 54.4533 144.853 54.96C143.893 55.4667 143.079 56.2133 142.413 57.2C141.746 58.1867 141.413 59.3867 141.413 60.8ZM161.448 51.6H164.648V58.04L171.448 51.6H175.448L167.448 59.2L176.248 70H172.248L164.648 60.68V70H161.448V51.6ZM177.08 60.8C177.08 58.9333 177.493 57.28 178.32 55.84C179.173 54.4 180.32 53.2667 181.76 52.44C183.2 51.6133 184.813 51.2 186.6 51.2C188.413 51.2 190.026 51.6133 191.44 52.44C192.88 53.2667 194.013 54.4 194.84 55.84C195.693 57.28 196.12 58.9333 196.12 60.8C196.12 62.64 195.693 64.2933 194.84 65.76C194.013 67.2 192.88 68.3333 191.44 69.16C190.026 69.9867 188.413 70.4 186.6 70.4C184.813 70.4 183.2 69.9867 181.76 69.16C180.32 68.3333 179.173 67.2 178.32 65.76C177.493 64.2933 177.08 62.64 177.08 60.8ZM180.32 60.8C180.32 62.08 180.586 63.2133 181.12 64.2C181.68 65.1867 182.426 65.9733 183.36 66.56C184.32 67.12 185.4 67.4 186.6 67.4C187.8 67.4 188.866 67.12 189.8 66.56C190.76 65.9733 191.506 65.1867 192.04 64.2C192.6 63.2133 192.88 62.08 192.88 60.8C192.88 59.52 192.6 58.3867 192.04 57.4C191.506 56.3867 190.76 55.6 189.8 55.04C188.866 54.48 187.8 54.2 186.6 54.2C185.4 54.2 184.32 54.48 183.36 55.04C182.426 55.6 181.68 56.3867 181.12 57.4C180.586 58.3867 180.32 59.52 180.32 60.8ZM201.956 60.8C201.956 62.08 202.222 63.2133 202.756 64.2C203.316 65.1867 204.062 65.9733 204.996 66.56C205.956 67.12 207.036 67.4 208.236 67.4C209.729 67.4 211.062 67.0667 212.236 66.4C213.409 65.7333 214.209 64.9467 214.636 64.04V68.04C213.996 68.7867 213.076 69.3733 211.876 69.8C210.702 70.2 209.489 70.4 208.236 70.4C206.449 70.4 204.836 69.9867 203.396 69.16C201.956 68.3333 200.809 67.2 199.956 65.76C199.129 64.2933 198.716 62.64 198.716 60.8C198.716 58.9333 199.129 57.28 199.956 55.84C200.809 54.4 201.956 53.2667 203.396 52.44C204.836 51.6133 206.449 51.2 208.236 51.2C209.489 51.2 210.702 51.4133 211.876 51.84C213.076 52.24 213.996 52.8133 214.636 53.56V57.56C214.209 56.6533 213.409 55.8667 212.236 55.2C211.062 54.5333 209.729 54.2 208.236 54.2C207.036 54.2 205.956 54.48 204.996 55.04C204.062 55.6 203.316 56.3867 202.756 57.4C202.222 58.3867 201.956 59.52 201.956 60.8ZM216.817 51.6H227.617V54.6H223.817V70H220.617V54.6H216.817V51.6ZM230.828 51.6H234.028V58.56H238.428C240.321 58.56 241.908 59.0267 243.188 59.96C244.495 60.8667 245.148 62.3067 245.148 64.28C245.148 66.2533 244.495 67.7067 243.188 68.64C241.908 69.5467 240.321 70 238.428 70H230.828V51.6ZM238.428 61.36H234.028V67.2H238.428C239.601 67.2 240.481 66.9467 241.068 66.44C241.655 65.9067 241.948 65.1867 241.948 64.28C241.948 63.3467 241.655 62.6267 241.068 62.12C240.481 61.6133 239.601 61.36 238.428 61.36Z" fill="#2682EF"/>
<defs>
<filter id="filter0_dd" x="0.76001" y="0.0400391" width="206.46" height="113.12" filterUnits="userSpaceOnUse" color-interpolation-filters="sRGB">
<feFlood flood-opacity="0" result="BackgroundImageFix"/>
<feColorMatrix in="SourceAlpha" type="matrix" values="0 0 0 0 0 0 0 0 0 0 0 0 0 0 0 0 0 0 127 0"/>
<feOffset dy="4"/>
<feGaussianBlur stdDeviation="2"/>
<feColorMatrix type="matrix" values="0 0 0 0 0 0 0 0 0 0 0 0 0 0 0 0 0 0 0.25 0"/>
<feBlend mode="normal" in2="BackgroundImageFix" result="effect1_dropShadow"/>
<feColorMatrix in="SourceAlpha" type="matrix" values="0 0 0 0 0 0 0 0 0 0 0 0 0 0 0 0 0 0 127 0"/>
<feOffset dy="4"/>
<feGaussianBlur stdDeviation="2"/>
<feColorMatrix type="matrix" values="0 0 0 0 0 0 0 0 0 0 0 0 0 0 0 0 0 0 0.25 0"/>
<feBlend mode="normal" in2="effect1_dropShadow" result="effect2_dropShadow"/>
<feBlend mode="normal" in="SourceGraphic" in2="effect2_dropShadow" result="shape"/>
</filter>
</defs>
</svg>
