<svg width="287" height="114" viewBox="0 0 287 114" fill="none" xmlns="http://www.w3.org/2000/svg">
<g filter="url(#filter0_dd)">
<path d="M4.76 52.6C4.76 41.08 6.632 31.432 10.376 23.656C14.12 15.88 19.352 10.024 26.072 6.08799C32.792 2.05599 40.568 0.0399952 49.4 0.0399952C63.416 0.0399952 74.36 4.50399 82.232 13.432C90.104 22.36 94.04 35.416 94.04 52.6C94.04 69.784 90.104 82.84 82.232 91.768C74.36 100.696 63.416 105.16 49.4 105.16C40.568 105.16 32.792 103.192 26.072 99.256C19.352 95.224 14.12 89.32 10.376 81.544C6.632 73.768 4.76 64.12 4.76 52.6ZM35 52.6C35 60.76 36.344 67.144 39.032 71.752C41.816 76.264 45.272 78.52 49.4 78.52C53.624 78.52 57.08 76.264 59.768 71.752C62.456 67.144 63.8 60.76 63.8 52.6C63.8 44.44 62.456 38.104 59.768 33.592C57.08 28.984 53.624 26.68 49.4 26.68C45.272 26.68 41.816 28.984 39.032 33.592C36.344 38.104 35 44.44 35 52.6ZM148.5 105.88C141.684 105.88 135.588 104.824 130.212 102.712C124.932 100.6 120.468 97.72 116.82 94.072C113.172 90.424 110.388 86.344 108.468 81.832C106.548 77.224 105.588 72.52 105.588 67.72H136.692C136.692 71.08 137.316 73.768 138.564 75.784C139.908 77.8 141.588 79.24 143.604 80.104C145.716 80.968 147.828 81.4 149.94 81.4C153.204 81.4 155.988 80.776 158.292 79.528C160.596 78.184 161.748 75.688 161.748 72.04C161.748 70.024 161.124 68.152 159.876 66.424C158.724 64.696 156.66 63.304 153.684 62.248C150.708 61.096 146.58 60.52 141.3 60.52V41.944C146.388 41.944 150.564 40.84 153.828 38.632C157.188 36.424 158.868 33.832 158.868 30.856C158.868 28.936 158.1 27.4 156.564 26.248C155.124 25.096 152.868 24.52 149.796 24.52C146.532 24.52 143.892 25.432 141.876 27.256C139.86 29.08 138.852 31.48 138.852 34.456H109.908C109.908 28.024 111.54 22.216 114.804 17.032C118.068 11.848 122.676 7.72 128.628 4.648C134.676 1.576 141.78 0.0399952 149.94 0.0399952C158.58 0.0399952 165.876 1.288 171.828 3.784C177.78 6.27999 182.292 9.68799 185.364 14.008C188.436 18.328 189.972 23.224 189.972 28.696C189.972 33.976 188.436 38.344 185.364 41.8C182.388 45.256 178.308 47.992 173.124 50.008C179.364 52.312 184.212 55.528 187.668 59.656C191.124 63.688 192.852 68.776 192.852 74.92C192.852 80.872 191.124 86.2 187.668 90.904C184.308 95.512 179.316 99.16 172.692 101.848C166.164 104.536 158.1 105.88 148.5 105.88Z" fill="#E1EBFF"/>
</g>
<path d="M73.8523 42H88.8523V45.2H77.2523V53.2H81.4523C83.2657 53.2 84.879 53.5467 86.2923 54.24C87.7323 54.9067 88.8657 55.8667 89.6923 57.12C90.5457 58.3733 90.9723 59.8667 90.9723 61.6C90.9723 63.3067 90.5457 64.8 89.6923 66.08C88.8657 67.3333 87.7323 68.3067 86.2923 69C84.879 69.6667 83.2657 70 81.4523 70H73.8523V42ZM81.4523 56.4H77.2523V66.8H81.4523C83.2657 66.8 84.7323 66.36 85.8523 65.48C86.999 64.6 87.5723 63.3067 87.5723 61.6C87.5723 59.8667 86.999 58.5733 85.8523 57.72C84.7323 56.84 83.2657 56.4 81.4523 56.4ZM111.446 65.72C110.833 66.6533 110.153 67.48 109.406 68.2C108.66 68.8933 107.753 69.44 106.686 69.84C105.62 70.2133 104.286 70.4 102.686 70.4C101.033 70.4 99.5397 69.9867 98.2064 69.16C96.8997 68.3333 95.8597 67.2 95.0864 65.76C94.3397 64.2933 93.9664 62.64 93.9664 60.8C93.9664 60.4533 93.9797 60.12 94.0064 59.8C94.0331 59.48 94.0731 59.16 94.1264 58.84C94.3931 57.32 94.9264 55.9867 95.7264 54.84C96.5264 53.6933 97.5531 52.8 98.8064 52.16C100.086 51.52 101.513 51.2 103.086 51.2C104.82 51.2 106.34 51.5867 107.646 52.36C108.953 53.1333 109.966 54.2267 110.686 55.64C111.406 57.0267 111.766 58.6933 111.766 60.64C111.766 60.8 111.766 60.96 111.766 61.12C111.766 61.28 111.753 61.44 111.726 61.6H97.2464C97.3797 63.4667 97.9664 64.9067 99.0064 65.92C100.046 66.9067 101.406 67.4 103.086 67.4C104.42 67.4 105.553 67.0933 106.486 66.48C107.446 65.8667 108.233 65.0667 108.846 64.08L111.446 65.72ZM103.086 54C101.593 54 100.3 54.44 99.2064 55.32C98.1131 56.1733 97.4864 57.36 97.3264 58.88H108.286C108.126 57.44 107.62 56.2667 106.766 55.36C105.913 54.4533 104.686 54 103.086 54ZM122.992 70.4C120.832 70.4 119.099 69.8133 117.792 68.64C116.512 67.4667 115.766 65.9867 115.552 64.2H118.792C118.979 65.08 119.379 65.8667 119.992 66.56C120.606 67.2533 121.606 67.6 122.992 67.6C124.246 67.6 125.232 67.3333 125.952 66.8C126.672 66.2667 127.032 65.5467 127.032 64.64C127.032 63.7067 126.659 62.9733 125.912 62.44C125.166 61.88 124.086 61.6 122.672 61.6V58.8C123.899 58.8 124.779 58.5733 125.312 58.12C125.846 57.64 126.112 57.0667 126.112 56.4C126.112 55.68 125.846 55.12 125.312 54.72C124.779 54.2933 124.032 54.08 123.072 54.08C121.846 54.08 120.952 54.4133 120.392 55.08C119.859 55.72 119.592 56.3467 119.592 56.96H116.352C116.352 55.92 116.646 54.96 117.232 54.08C117.819 53.2 118.619 52.5067 119.632 52C120.646 51.4667 121.792 51.2 123.072 51.2C124.272 51.2 125.352 51.4267 126.312 51.88C127.272 52.3333 128.019 52.9333 128.552 53.68C129.112 54.4267 129.392 55.2533 129.392 56.16C129.392 57.9467 128.432 59.2533 126.512 60.08C127.659 60.4267 128.552 60.9733 129.192 61.72C129.859 62.4667 130.192 63.4267 130.192 64.6C130.192 65.8 129.859 66.84 129.192 67.72C128.552 68.5733 127.686 69.24 126.592 69.72C125.499 70.1733 124.299 70.4 122.992 70.4ZM133.38 60.8C133.38 58.9333 133.794 57.28 134.62 55.84C135.474 54.4 136.62 53.2667 138.06 52.44C139.5 51.6133 141.114 51.2 142.9 51.2C144.714 51.2 146.327 51.6133 147.74 52.44C149.18 53.2667 150.314 54.4 151.14 55.84C151.994 57.28 152.42 58.9333 152.42 60.8C152.42 62.64 151.994 64.2933 151.14 65.76C150.314 67.2 149.18 68.3333 147.74 69.16C146.327 69.9867 144.714 70.4 142.9 70.4C141.114 70.4 139.5 69.9867 138.06 69.16C136.62 68.3333 135.474 67.2 134.62 65.76C133.794 64.2933 133.38 62.64 133.38 60.8ZM136.62 60.8C136.62 62.08 136.887 63.2133 137.42 64.2C137.98 65.1867 138.727 65.9733 139.66 66.56C140.62 67.12 141.7 67.4 142.9 67.4C144.1 67.4 145.167 67.12 146.1 66.56C147.06 65.9733 147.807 65.1867 148.34 64.2C148.9 63.2133 149.18 62.08 149.18 60.8C149.18 59.52 148.9 58.3867 148.34 57.4C147.807 56.3867 147.06 55.6 146.1 55.04C145.167 54.48 144.1 54.2 142.9 54.2C141.7 54.2 140.62 54.48 139.66 55.04C138.727 55.6 137.98 56.3867 137.42 57.4C136.887 58.3867 136.62 59.52 136.62 60.8ZM171.816 51.6V70H168.616V54.6H160.016V70H156.816V51.6H171.816ZM179.272 55.92L177.712 53.48C178.405 52.9733 179.339 52.4667 180.512 51.96C181.685 51.4533 183.099 51.2 184.752 51.2C186.859 51.2 188.565 51.6933 189.872 52.68C191.179 53.64 191.832 55.0133 191.832 56.8V70H188.632V67.36C188.072 68.3467 187.232 69.1067 186.112 69.64C184.992 70.1467 183.739 70.4 182.352 70.4C181.205 70.4 180.152 70.1867 179.192 69.76C178.232 69.3333 177.459 68.7067 176.872 67.88C176.312 67.0267 176.032 65.9733 176.032 64.72C176.032 62.7733 176.725 61.2667 178.112 60.2C179.525 59.1067 181.445 58.56 183.872 58.56C184.939 58.56 185.872 58.6933 186.672 58.96C187.472 59.2267 188.125 59.5333 188.632 59.88V56.8C188.632 55.8667 188.232 55.1733 187.432 54.72C186.659 54.24 185.765 54 184.752 54C183.445 54 182.312 54.24 181.352 54.72C180.419 55.2 179.725 55.6 179.272 55.92ZM179.272 64.6C179.272 65.5867 179.645 66.3333 180.392 66.84C181.165 67.32 182.085 67.56 183.152 67.56C184.752 67.56 186.059 67.2 187.072 66.48C188.112 65.7333 188.632 64.5067 188.632 62.8V62.08C187.272 61.36 185.739 61 184.032 61C182.405 61 181.205 61.32 180.432 61.96C179.659 62.6 179.272 63.48 179.272 64.6ZM198.686 60.8C198.686 62.08 198.953 63.2133 199.486 64.2C200.046 65.1867 200.793 65.9733 201.726 66.56C202.686 67.12 203.766 67.4 204.966 67.4C206.459 67.4 207.793 67.0667 208.966 66.4C210.139 65.7333 210.939 64.9467 211.366 64.04V68.04C210.726 68.7867 209.806 69.3733 208.606 69.8C207.433 70.2 206.219 70.4 204.966 70.4C203.179 70.4 201.566 69.9867 200.126 69.16C198.686 68.3333 197.539 67.2 196.686 65.76C195.859 64.2933 195.446 62.64 195.446 60.8C195.446 58.9333 195.859 57.28 196.686 55.84C197.539 54.4 198.686 53.2667 200.126 52.44C201.566 51.6133 203.179 51.2 204.966 51.2C206.219 51.2 207.433 51.4133 208.606 51.84C209.806 52.24 210.726 52.8133 211.366 53.56V57.56C210.939 56.6533 210.139 55.8667 208.966 55.2C207.793 54.5333 206.459 54.2 204.966 54.2C203.766 54.2 202.686 54.48 201.726 55.04C200.793 55.6 200.046 56.3867 199.486 57.4C198.953 58.3867 198.686 59.52 198.686 60.8ZM216.348 51.6H219.548V58.8H229.748V51.6H232.948V70H229.748V61.8H219.548V70H216.348V51.6ZM237.365 60.8C237.365 58.9333 237.778 57.28 238.605 55.84C239.458 54.4 240.605 53.2667 242.045 52.44C243.485 51.6133 245.098 51.2 246.885 51.2C248.698 51.2 250.312 51.6133 251.725 52.44C253.165 53.2667 254.298 54.4 255.125 55.84C255.978 57.28 256.405 58.9333 256.405 60.8C256.405 62.64 255.978 64.2933 255.125 65.76C254.298 67.2 253.165 68.3333 251.725 69.16C250.312 69.9867 248.698 70.4 246.885 70.4C245.098 70.4 243.485 69.9867 242.045 69.16C240.605 68.3333 239.458 67.2 238.605 65.76C237.778 64.2933 237.365 62.64 237.365 60.8ZM240.605 60.8C240.605 62.08 240.872 63.2133 241.405 64.2C241.965 65.1867 242.712 65.9733 243.645 66.56C244.605 67.12 245.685 67.4 246.885 67.4C248.085 67.4 249.152 67.12 250.085 66.56C251.045 65.9733 251.792 65.1867 252.325 64.2C252.885 63.2133 253.165 62.08 253.165 60.8C253.165 59.52 252.885 58.3867 252.325 57.4C251.792 56.3867 251.045 55.6 250.085 55.04C249.152 54.48 248.085 54.2 246.885 54.2C245.685 54.2 244.605 54.48 243.645 55.04C242.712 55.6 241.965 56.3867 241.405 57.4C240.872 58.3867 240.605 59.52 240.605 60.8ZM258.001 51.6H268.801V54.6H265.001V70H261.801V54.6H258.001V51.6ZM272.012 51.6H275.212V58.56H279.612C281.505 58.56 283.092 59.0267 284.372 59.96C285.678 60.8667 286.332 62.3067 286.332 64.28C286.332 66.2533 285.678 67.7067 284.372 68.64C283.092 69.5467 281.505 70 279.612 70H272.012V51.6ZM279.612 61.36H275.212V67.2H279.612C280.785 67.2 281.665 66.9467 282.252 66.44C282.838 65.9067 283.132 65.1867 283.132 64.28C283.132 63.3467 282.838 62.6267 282.252 62.12C281.665 61.6133 280.785 61.36 279.612 61.36Z" fill="#2682EF"/>
<defs>
<filter id="filter0_dd" x="0.76001" y="0.0400391" width="196.092" height="113.84" filterUnits="userSpaceOnUse" color-interpolation-filters="sRGB">
<feFlood flood-opacity="0" result="BackgroundImageFix"/>
<feColorMatrix in="SourceAlpha" type="matrix" values="0 0 0 0 0 0 0 0 0 0 0 0 0 0 0 0 0 0 127 0"/>
<feOffset dy="4"/>
<feGaussianBlur stdDeviation="2"/>
<feColorMatrix type="matrix" values="0 0 0 0 0 0 0 0 0 0 0 0 0 0 0 0 0 0 0.25 0"/>
<feBlend mode="normal" in2="BackgroundImageFix" result="effect1_dropShadow"/>
<feColorMatrix in="SourceAlpha" type="matrix" values="0 0 0 0 0 0 0 0 0 0 0 0 0 0 0 0 0 0 127 0"/>
<feOffset dy="4"/>
<feGaussianBlur stdDeviation="2"/>
<feColorMatrix type="matrix" values="0 0 0 0 0 0 0 0 0 0 0 0 0 0 0 0 0 0 0.25 0"/>
<feBlend mode="normal" in2="effect1_dropShadow" result="effect2_dropShadow"/>
<feBlend mode="normal" in="SourceGraphic" in2="effect2_dropShadow" result="shape"/>
</filter>
</defs>
</svg>
