<svg width="155" height="162" viewBox="0 0 155 162" fill="none" xmlns="http://www.w3.org/2000/svg">
<g clip-path="url(#clip0)">
<path d="M8.41222 128.709C8.41222 130.207 6.82627 131.434 4.87166 131.434H3.54055C1.58348 131.434 0 130.217 0 128.709V81.9828C0 80.4816 1.58348 79.2578 3.54055 79.2578H4.86671C6.82132 79.2578 8.40727 80.4741 8.40727 81.9828L8.41222 128.709Z" fill="#BCBCBC"/>
<path d="M154.999 128.709C154.999 130.207 153.413 131.434 151.458 131.434H150.132C148.175 131.434 146.592 130.217 146.592 128.709V81.9828C146.592 80.4816 148.175 79.2578 150.132 79.2578H151.458C153.413 79.2578 154.999 80.4741 154.999 81.9828V128.709Z" fill="#BCBCBC"/>
<path d="M28.7794 5.16962C29.1749 2.74316 27.531 0.455075 25.1076 0.0590325C22.6841 -0.33701 20.3989 1.30896 20.0033 3.73542C19.6078 6.16188 21.2517 8.44996 23.6751 8.84601C26.0986 9.24205 28.3838 7.59607 28.7794 5.16962Z" fill="#BCBCBC"/>
<path d="M26.9566 39.7679H21.8301L23.0746 4.45215H25.4869L26.9566 39.7679Z" fill="#BCBCBC"/>
<path d="M33.5502 59.4546C33.5502 60.9558 32.182 62.1796 30.4971 62.1796H18.2895C16.6021 62.1796 15.2363 60.9657 15.2363 59.4546V35.5541C15.2363 34.0529 16.6021 32.8291 18.2895 32.8291H30.4971C32.182 32.8291 33.5502 34.0454 33.5502 35.5541V59.4546Z" fill="#BCBCBC"/>
<path d="M134.936 5.48314C135.505 3.09141 134.029 0.690983 131.64 0.121633C129.252 -0.447716 126.854 1.02961 126.285 3.42134C125.717 5.81307 127.192 8.2135 129.581 8.78285C131.97 9.3522 134.367 7.87487 134.936 5.48314Z" fill="#BCBCBC"/>
<path d="M133.17 39.7679H128.041L129.288 4.45215H131.698L133.17 39.7679Z" fill="#BCBCBC"/>
<path d="M139.763 59.4546C139.763 60.9558 138.395 62.1796 136.71 62.1796H124.5C122.815 62.1796 121.449 60.9657 121.449 59.4546V35.5541C121.449 34.0529 122.815 32.8291 124.5 32.8291H136.71C138.395 32.8291 139.763 34.0454 139.763 35.5541V59.4546Z" fill="#BCBCBC"/>
<path d="M150.262 78.7974C148.983 53.2817 116.897 32.8369 77.4986 32.8369C38.0998 32.8369 6.01457 53.2743 4.73789 78.7974C4.70936 79.0516 4.69449 79.3071 4.69336 79.5629V152.731C4.69336 157.782 9.98316 161.877 16.5051 161.877H138.482C145.007 161.877 150.294 157.782 150.294 152.731V79.5629C150.304 79.3052 150.287 79.0501 150.262 78.7974Z" fill="white" stroke="#A7A9AC" stroke-miterlimit="10"/>
<path d="M138.492 155.738H16.5154C9.98355 155.738 4.70117 153.114 4.70117 149.874V156.015C4.70117 159.25 9.99097 161.871 16.5129 161.871H138.49C145.014 161.871 150.302 159.25 150.302 156.015V149.874C150.304 153.114 145.017 155.738 138.492 155.738Z" fill="#BCBCBC"/>
<path d="M132.01 134.032V94.6782C132.01 94.4627 131.995 94.2497 131.975 94.0391C131.018 72.762 106.999 55.7383 77.4989 55.7383C47.9993 55.7383 23.9799 72.762 23.0224 94.0391C23.0026 94.2497 22.9902 94.4627 22.9902 94.6782V134.032H132.01Z" fill="#BCBCBC"/>
<path d="M132.01 134.032V97.1212C132.01 96.9206 131.995 96.7199 131.975 96.5217C131.018 76.5699 106.999 60.6016 77.4989 60.6016C47.9993 60.6016 23.9799 76.5749 23.0224 96.5217C23.0026 96.7199 22.9902 96.9206 22.9902 97.1212V134.032H132.01Z" fill="#3D4756"/>
<path d="M131.975 96.5296C131.018 76.5778 106.999 60.6094 77.4989 60.6094C47.9993 60.6094 23.9799 76.5827 23.0224 96.5296C23.0026 96.7277 22.9902 96.9284 22.9902 97.1291V105.284C22.9909 105.084 23.0017 104.884 23.0224 104.685C23.9799 84.7329 48.0116 68.7645 77.4989 68.7645C106.986 68.7645 131.018 84.7403 131.975 104.685C131.997 104.884 132.009 105.084 132.01 105.284V97.134C132.01 96.9284 131.995 96.7277 131.975 96.5296Z" fill="#2D353F"/>
<path d="M50.9684 92.0527C50.9689 93.094 50.6609 94.112 50.0835 94.978C49.5061 95.844 48.6852 96.5191 47.7245 96.9179C46.7638 97.3167 45.7066 97.4213 44.6866 97.2185C43.6665 97.0156 42.7295 96.5145 41.9939 95.7784C41.2584 95.0423 40.7574 94.1043 40.5543 93.0831C40.3513 92.0619 40.4552 91.0033 40.8531 90.0412C41.251 89.0792 41.9249 88.2569 42.7895 87.6784C43.6542 87.0998 44.6708 86.791 45.7108 86.791C46.4011 86.7907 47.0847 86.9265 47.7226 87.1908C48.3605 87.4551 48.9401 87.8426 49.4283 88.3312C49.9166 88.8199 50.3039 89.4 50.5681 90.0386C50.8324 90.6771 50.9684 91.3615 50.9684 92.0527V92.0527Z" fill="#27AAE1"/>
<path d="M117.771 92.0527C117.772 93.0941 117.464 94.1122 116.886 94.9782C116.309 95.8443 115.487 96.5194 114.527 96.9182C113.566 97.3169 112.508 97.4213 111.488 97.2183C110.468 97.0153 109.531 96.5138 108.796 95.7775C108.06 95.0411 107.56 94.1029 107.357 93.0816C107.154 92.0602 107.258 91.0015 107.657 90.0395C108.055 89.0775 108.729 88.2554 109.594 87.6772C110.459 87.0989 111.476 86.7905 112.516 86.791C113.91 86.791 115.246 87.3454 116.232 88.3321C117.217 89.3189 117.771 90.6572 117.771 92.0527V92.0527Z" fill="#27AAE1"/>
<path d="M95.1865 110.375C95.0232 110.369 94.8604 110.396 94.7075 110.454C94.5546 110.511 94.4147 110.599 94.2958 110.711C94.1768 110.823 94.0813 110.958 94.0146 111.107C93.9479 111.257 93.9115 111.418 93.9073 111.581C93.9073 111.658 93.6846 117.239 90.1391 120.167C86.752 122.964 80.6135 123.901 77.6322 123.883C74.8462 124.005 68.5099 122.954 65.1252 120.167C61.5797 117.239 61.3595 111.658 61.3595 111.581C61.35 111.253 61.2105 110.941 60.9718 110.716C60.733 110.49 60.4146 110.369 60.0865 110.378C59.7584 110.388 59.4475 110.528 59.2223 110.767C58.997 111.006 58.8758 111.325 58.8853 111.653C58.8853 111.928 59.1327 118.426 63.5565 122.087C68.0818 125.825 73.9209 126.395 77.0557 126.395C80.7966 126.395 87.2122 125.825 91.7375 122.087C96.1712 118.426 96.4013 111.93 96.4087 111.653C96.414 111.488 96.3864 111.324 96.3275 111.17C96.2686 111.016 96.1797 110.876 96.0659 110.757C95.952 110.638 95.8156 110.543 95.6646 110.477C95.5136 110.411 95.3511 110.377 95.1865 110.375V110.375Z" fill="#27AAE1"/>
</g>
<defs>
<clipPath id="clip0">
<rect width="155" height="162" fill="white"/>
</clipPath>
</defs>
</svg>
