<svg width="40" height="40" viewBox="0 0 40 40" fill="none" xmlns="http://www.w3.org/2000/svg">
<g clip-path="url(#clip0)">
<path d="M36.8427 40.0003H32.7896C32.7896 33.1628 27.0544 27.6019 20 27.6019C12.9456 27.6019 7.21252 33.1648 7.21252 40.0003H3.15942C3.15942 30.9255 10.7164 23.5488 20.0021 23.5488C29.2857 23.5488 36.8427 30.9255 36.8427 40.0003Z" fill="#474747"/>
<path d="M20.0023 22.2312C13.876 22.2312 8.88867 17.2419 8.88867 11.1156C8.88665 4.98733 13.874 0 20.0023 0C26.1326 0 31.1199 4.98531 31.1199 11.1156C31.1199 17.2459 26.1326 22.2312 20.0023 22.2312ZM20.0023 4.0531C16.1072 4.0531 12.9397 7.22059 12.9397 11.1156C12.9397 15.0106 16.1072 18.1781 20.0023 18.1781C23.8993 18.1781 27.0668 15.0106 27.0668 11.1156C27.0668 7.22059 23.8953 4.0531 20.0023 4.0531Z" fill="#474747"/>
</g>
<defs>
<clipPath id="clip0">
<rect width="40" height="40" fill="white"/>
</clipPath>
</defs>
</svg>
