<svg width="154" height="156" viewBox="0 0 154 156" fill="none" xmlns="http://www.w3.org/2000/svg">
<path d="M75.7776 43.875C87.9094 43.875 97.7776 34.0324 97.7776 21.9375C97.7776 9.84263 87.9094 0 75.7776 0C63.6458 0 53.7776 9.84263 53.7776 21.9375C53.7776 34.0324 63.6458 43.875 75.7776 43.875ZM75.7776 4.875C85.2107 4.875 92.8887 12.5288 92.8887 21.9375C92.8887 31.3463 85.2107 39 75.7776 39C66.3445 39 58.6665 31.3463 58.6665 21.9375C58.6665 12.5288 66.3445 4.875 75.7776 4.875Z" fill="#0085FF"/>
<path d="M48.5539 125.544C48.9939 124.796 49.0012 123.872 48.5734 123.119L26.5735 84.1185C25.7081 82.5829 23.1781 82.5829 22.3152 84.1185L0.315229 123.119C-0.112549 123.874 -0.105216 124.796 0.334784 125.544C0.774784 126.292 1.57656 126.75 2.44434 126.75H46.4443C47.3146 126.75 48.1163 126.292 48.5539 125.544ZM6.62434 121.875L24.4443 90.2854L42.2643 121.875H6.62434Z" fill="#0085FF"/>
<path d="M154 85.3125C154 83.967 152.905 82.875 151.556 82.875H112.444C111.095 82.875 110 83.967 110 85.3125V124.312C110 125.658 111.095 126.75 112.444 126.75H151.556C152.905 126.75 154 125.658 154 124.312V85.3125ZM149.111 121.875H114.889V87.75H149.111V121.875Z" fill="#0085FF"/>
<path d="M75.7777 138.938C64.4282 138.938 53.4209 135.701 43.9389 129.58L41.2793 133.673C51.5557 140.307 63.4846 143.813 75.7777 143.813C88.5377 143.813 100.846 140.056 111.371 132.949L108.631 128.912C98.9168 135.471 87.5575 138.938 75.7777 138.938Z" fill="#0085FF"/>
<path d="M134.4 78.0947L139.284 77.9046C138.368 54.6313 124.747 33.7907 103.742 23.5117L101.589 27.8895C120.978 37.3762 133.552 56.6154 134.4 78.0947Z" fill="#0085FF"/>
<path d="M17.2968 85.1195C17.1746 83.5815 17.1111 82.0068 17.1111 80.4371C17.1111 57.9414 29.6999 37.8052 49.9644 27.8895L47.8133 23.5117C25.8597 34.2562 12.2222 56.067 12.2222 80.4371C12.2222 82.136 12.2882 83.8398 12.4226 85.5071L17.2968 85.1195Z" fill="#0085FF"/>
<path d="M39.8274 17.7773L43.2838 21.224L50.6171 13.9115C51.5729 12.9584 51.5729 11.4179 50.6171 10.4648L43.2838 3.15234L39.8274 6.59897L42.988 9.75066H26.8889V14.6257H42.988L39.8274 17.7773Z" fill="#0085FF"/>
<path d="M144.222 56.0625C144.848 56.0625 145.474 55.8236 145.95 55.3483L153.284 48.0358L149.827 44.5892L146.667 47.7409V31.6875H141.778V47.7409L138.617 44.5892L135.161 48.0358L142.494 55.3483C142.971 55.8236 143.596 56.0625 144.222 56.0625Z" fill="#0085FF"/>
<path d="M22.7161 132.34L15.3828 139.652L18.8393 143.099L21.9999 139.947V156.001H26.8888V139.947L30.0495 143.099L33.5059 139.652L26.1726 132.34C25.2193 131.387 23.6719 131.387 22.7161 132.34Z" fill="#0085FF"/>
<path d="M97.7775 78.0003C97.7775 70.193 93.5633 62.9122 86.78 59L84.3307 63.2193C89.6082 66.2638 92.8886 71.9261 92.8886 78.0003C92.8886 85.949 87.3984 92.6278 80.0089 94.5144L82.8542 88.8423L78.4811 86.6608L73.5922 96.4108C73.1229 97.3492 73.3062 98.4826 74.0518 99.2236L81.3851 106.536L84.8415 103.089L81.0233 99.2821C90.6251 96.9275 97.7775 88.2914 97.7775 78.0003Z" fill="#0085FF"/>
<path d="M64.7825 97.0058L67.2269 92.7865C61.9469 89.7421 58.6665 84.0773 58.6665 78.0007C58.6665 70.052 64.1567 63.3732 71.5462 61.4866L68.7009 67.1587L73.074 69.3402L77.9629 59.5902C78.4322 58.6518 78.2489 57.5183 77.5033 56.7773L70.17 49.4648L66.7136 52.9115L70.5318 56.7188C60.9325 59.0735 53.7776 67.7095 53.7776 78.0007C53.7776 85.8128 57.9943 93.0937 64.7825 97.0058Z" fill="#0085FF"/>
</svg>
