<svg width="40" height="40" viewBox="0 0 40 40" fill="none" xmlns="http://www.w3.org/2000/svg">
<path d="M2.50001 2.72313C-0.643327 5.98813 6.57141e-06 9.45646 6.57141e-06 19.9931C6.57141e-06 28.7431 -1.52666 37.5148 6.46334 39.5798C8.95834 40.2215 31.065 40.2215 33.5567 39.5765C36.8833 38.7181 39.59 36.0198 39.96 31.3148C40.0117 30.6581 40.0117 9.3398 39.9583 8.6698C39.565 3.65813 36.48 0.769794 32.415 0.184794C31.4833 0.0497941 31.2967 0.00979412 26.5167 0.00146079C9.56167 0.00979412 5.84501 -0.745206 2.50001 2.72313Z" fill="url(#paint0_linear)"/>
<path d="M19.9967 5.233C13.945 5.233 8.19835 4.69467 6.00335 10.328C5.09668 12.6547 5.22835 15.6763 5.22835 20.003C5.22835 23.7997 5.10668 27.368 6.00335 29.6763C8.19335 35.313 13.9867 34.773 19.9933 34.773C25.7883 34.773 31.7633 35.3763 33.985 29.6763C34.8933 27.3263 34.76 24.3497 34.76 20.003C34.76 14.233 35.0783 10.508 32.28 7.71134C29.4467 4.878 25.615 5.233 19.99 5.233H19.9967ZM18.6733 7.89467C31.2967 7.87467 32.9033 6.47134 32.0167 25.9663C31.7017 32.8613 26.4517 32.1047 19.9983 32.1047C8.23168 32.1047 7.89335 31.768 7.89335 19.9963C7.89335 8.088 8.82668 7.90134 18.6733 7.89134V7.89467ZM27.88 10.3463C26.9017 10.3463 26.1083 11.1397 26.1083 12.118C26.1083 13.0963 26.9017 13.8897 27.88 13.8897C28.8583 13.8897 29.6517 13.0963 29.6517 12.118C29.6517 11.1397 28.8583 10.3463 27.88 10.3463ZM19.9967 12.418C15.8083 12.418 12.4133 15.8147 12.4133 20.003C12.4133 24.1913 15.8083 27.5863 19.9967 27.5863C24.185 27.5863 27.5783 24.1913 27.5783 20.003C27.5783 15.8147 24.185 12.418 19.9967 12.418ZM19.9967 15.0797C26.505 15.0797 26.5133 24.9263 19.9967 24.9263C13.49 24.9263 13.48 15.0797 19.9967 15.0797Z" fill="white"/>
<defs>
<linearGradient id="paint0_linear" x1="2.57671" y1="37.4466" x2="39.7525" y2="5.27142" gradientUnits="userSpaceOnUse">
<stop stop-color="#FFDD55"/>
<stop offset="0.260417" stop-color="#FF543E"/>
<stop offset="1" stop-color="#41A4FF"/>
</linearGradient>
</defs>
</svg>
