<svg width="131" height="119" viewBox="0 0 131 119" fill="none" xmlns="http://www.w3.org/2000/svg">
<path d="M76.0048 115.406C76.0048 116.863 77.1851 118.04 78.6393 118.04H118.372C119.826 118.04 121.006 116.863 121.006 115.406V63.4155C121.006 61.9587 119.826 60.7809 118.372 60.7809C116.917 60.7809 115.737 61.9584 115.737 63.4155V112.772H81.2736V85.276C81.2736 83.8192 80.0932 82.6414 78.639 82.6414H52.7899C51.3357 82.6414 50.1553 83.8189 50.1553 85.276V113.364H15.2497V59.867C15.2497 58.4102 14.0694 57.2324 12.6152 57.2324C11.1609 57.2324 9.98059 58.4099 9.98059 59.867V115.999C9.98059 117.455 11.1609 118.633 12.6152 118.633H52.7902C54.2444 118.633 55.4248 117.456 55.4248 115.999V87.9102H76.0048V115.406Z" fill="#0085FF"/>
<path d="M130.011 51.6972L66.9213 0.589466C65.9649 -0.187712 64.6005 -0.198083 63.6337 0.5684L1.00509 49.9059C-0.138316 50.8069 -0.335689 52.4614 0.565293 53.6048C1.46628 54.7456 3.12596 54.9456 4.26418 54.042L65.2377 6.00865L126.693 55.7889C127.181 56.1814 127.768 56.3765 128.35 56.3765C129.117 56.3765 129.879 56.042 130.397 55.4016C131.314 54.2712 131.141 52.6115 130.011 51.6972Z" fill="#0085FF"/>
</svg>
