<svg width="287" height="114" viewBox="0 0 287 114" fill="none" xmlns="http://www.w3.org/2000/svg">
<g filter="url(#filter0_dd)">
<path d="M4.76 52.6C4.76 41.08 6.632 31.432 10.376 23.656C14.12 15.88 19.352 10.024 26.072 6.08799C32.792 2.05599 40.568 0.0399952 49.4 0.0399952C63.416 0.0399952 74.36 4.50399 82.232 13.432C90.104 22.36 94.04 35.416 94.04 52.6C94.04 69.784 90.104 82.84 82.232 91.768C74.36 100.696 63.416 105.16 49.4 105.16C40.568 105.16 32.792 103.192 26.072 99.256C19.352 95.224 14.12 89.32 10.376 81.544C6.632 73.768 4.76 64.12 4.76 52.6ZM35 52.6C35 60.76 36.344 67.144 39.032 71.752C41.816 76.264 45.272 78.52 49.4 78.52C53.624 78.52 57.08 76.264 59.768 71.752C62.456 67.144 63.8 60.76 63.8 52.6C63.8 44.44 62.456 38.104 59.768 33.592C57.08 28.984 53.624 26.68 49.4 26.68C45.272 26.68 41.816 28.984 39.032 33.592C36.344 38.104 35 44.44 35 52.6ZM108.468 36.904V10.552L165.348 0.0399952V103H135.108V31L108.468 36.904Z" fill="#E1EBFF"/>
</g>
<path d="M155.285 45.2H139.885V70H136.485V42H158.685V70H155.285V45.2ZM167.879 78.8H164.679V51.6H167.879V54.76C168.546 53.6133 169.412 52.7333 170.479 52.12C171.572 51.5067 172.799 51.2 174.159 51.2C175.839 51.2 177.359 51.5867 178.719 52.36C180.106 53.1333 181.212 54.24 182.039 55.68C182.866 57.0933 183.279 58.8 183.279 60.8C183.279 62.7733 182.866 64.48 182.039 65.92C181.212 67.36 180.106 68.4667 178.719 69.24C177.359 70.0133 175.839 70.4 174.159 70.4C172.799 70.4 171.572 70.0933 170.479 69.48C169.412 68.8667 168.546 67.9867 167.879 66.84V78.8ZM180.039 60.8C180.039 59.3867 179.746 58.1867 179.159 57.2C178.599 56.2133 177.839 55.4667 176.879 54.96C175.946 54.4533 174.906 54.2 173.759 54.2C172.826 54.2 171.906 54.4533 170.999 54.96C170.092 55.4667 169.346 56.2133 168.759 57.2C168.172 58.1867 167.879 59.3867 167.879 60.8C167.879 62.2133 168.172 63.4133 168.759 64.4C169.346 65.3867 170.092 66.1333 170.999 66.64C171.906 67.1467 172.826 67.4 173.759 67.4C174.906 67.4 175.946 67.1467 176.879 66.64C177.839 66.1333 178.599 65.3867 179.159 64.4C179.746 63.4133 180.039 62.2133 180.039 60.8ZM186.091 60.8C186.091 58.9333 186.505 57.28 187.331 55.84C188.185 54.4 189.331 53.2667 190.771 52.44C192.211 51.6133 193.825 51.2 195.611 51.2C197.425 51.2 199.038 51.6133 200.451 52.44C201.891 53.2667 203.025 54.4 203.851 55.84C204.705 57.28 205.131 58.9333 205.131 60.8C205.131 62.64 204.705 64.2933 203.851 65.76C203.025 67.2 201.891 68.3333 200.451 69.16C199.038 69.9867 197.425 70.4 195.611 70.4C193.825 70.4 192.211 69.9867 190.771 69.16C189.331 68.3333 188.185 67.2 187.331 65.76C186.505 64.2933 186.091 62.64 186.091 60.8ZM189.331 60.8C189.331 62.08 189.598 63.2133 190.131 64.2C190.691 65.1867 191.438 65.9733 192.371 66.56C193.331 67.12 194.411 67.4 195.611 67.4C196.811 67.4 197.878 67.12 198.811 66.56C199.771 65.9733 200.518 65.1867 201.051 64.2C201.611 63.2133 201.891 62.08 201.891 60.8C201.891 59.52 201.611 58.3867 201.051 57.4C200.518 56.3867 199.771 55.6 198.811 55.04C197.878 54.48 196.811 54.2 195.611 54.2C194.411 54.2 193.331 54.48 192.371 55.04C191.438 55.6 190.691 56.3867 190.131 57.4C189.598 58.3867 189.331 59.52 189.331 60.8ZM210.967 60.8C210.967 62.08 211.234 63.2133 211.767 64.2C212.327 65.1867 213.074 65.9733 214.007 66.56C214.967 67.12 216.047 67.4 217.247 67.4C218.741 67.4 220.074 67.0667 221.247 66.4C222.421 65.7333 223.221 64.9467 223.647 64.04V68.04C223.007 68.7867 222.087 69.3733 220.887 69.8C219.714 70.2 218.501 70.4 217.247 70.4C215.461 70.4 213.847 69.9867 212.407 69.16C210.967 68.3333 209.821 67.2 208.967 65.76C208.141 64.2933 207.727 62.64 207.727 60.8C207.727 58.9333 208.141 57.28 208.967 55.84C209.821 54.4 210.967 53.2667 212.407 52.44C213.847 51.6133 215.461 51.2 217.247 51.2C218.501 51.2 219.714 51.4133 220.887 51.84C222.087 52.24 223.007 52.8133 223.647 53.56V57.56C223.221 56.6533 222.421 55.8667 221.247 55.2C220.074 54.5333 218.741 54.2 217.247 54.2C216.047 54.2 214.967 54.48 214.007 55.04C213.074 55.6 212.327 56.3867 211.767 57.4C211.234 58.3867 210.967 59.52 210.967 60.8ZM225.829 51.6H236.629V54.6H232.829V70H229.629V54.6H225.829V51.6ZM237.654 60.8C237.654 58.9333 238.067 57.28 238.894 55.84C239.747 54.4 240.894 53.2667 242.334 52.44C243.774 51.6133 245.387 51.2 247.174 51.2C248.987 51.2 250.601 51.6133 252.014 52.44C253.454 53.2667 254.587 54.4 255.414 55.84C256.267 57.28 256.694 58.9333 256.694 60.8C256.694 62.64 256.267 64.2933 255.414 65.76C254.587 67.2 253.454 68.3333 252.014 69.16C250.601 69.9867 248.987 70.4 247.174 70.4C245.387 70.4 243.774 69.9867 242.334 69.16C240.894 68.3333 239.747 67.2 238.894 65.76C238.067 64.2933 237.654 62.64 237.654 60.8ZM240.894 60.8C240.894 62.08 241.161 63.2133 241.694 64.2C242.254 65.1867 243.001 65.9733 243.934 66.56C244.894 67.12 245.974 67.4 247.174 67.4C248.374 67.4 249.441 67.12 250.374 66.56C251.334 65.9733 252.081 65.1867 252.614 64.2C253.174 63.2133 253.454 62.08 253.454 60.8C253.454 59.52 253.174 58.3867 252.614 57.4C252.081 56.3867 251.334 55.6 250.374 55.04C249.441 54.48 248.374 54.2 247.174 54.2C245.974 54.2 244.894 54.48 243.934 55.04C243.001 55.6 242.254 56.3867 241.694 57.4C241.161 58.3867 240.894 59.52 240.894 60.8ZM258.29 51.6H269.09V54.6H265.29V70H262.09V54.6H258.29V51.6ZM273.741 55.92L272.181 53.48C272.874 52.9733 273.807 52.4667 274.981 51.96C276.154 51.4533 277.567 51.2 279.221 51.2C281.327 51.2 283.034 51.6933 284.341 52.68C285.647 53.64 286.301 55.0133 286.301 56.8V70H283.101V67.36C282.541 68.3467 281.701 69.1067 280.581 69.64C279.461 70.1467 278.207 70.4 276.821 70.4C275.674 70.4 274.621 70.1867 273.661 69.76C272.701 69.3333 271.927 68.7067 271.341 67.88C270.781 67.0267 270.501 65.9733 270.501 64.72C270.501 62.7733 271.194 61.2667 272.581 60.2C273.994 59.1067 275.914 58.56 278.341 58.56C279.407 58.56 280.341 58.6933 281.141 58.96C281.941 59.2267 282.594 59.5333 283.101 59.88V56.8C283.101 55.8667 282.701 55.1733 281.901 54.72C281.127 54.24 280.234 54 279.221 54C277.914 54 276.781 54.24 275.821 54.72C274.887 55.2 274.194 55.6 273.741 55.92ZM273.741 64.6C273.741 65.5867 274.114 66.3333 274.861 66.84C275.634 67.32 276.554 67.56 277.621 67.56C279.221 67.56 280.527 67.2 281.541 66.48C282.581 65.7333 283.101 64.5067 283.101 62.8V62.08C281.741 61.36 280.207 61 278.501 61C276.874 61 275.674 61.32 274.901 61.96C274.127 62.6 273.741 63.48 273.741 64.6Z" fill="#2682EF"/>
<defs>
<filter id="filter0_dd" x="0.76001" y="0.0400391" width="168.588" height="113.12" filterUnits="userSpaceOnUse" color-interpolation-filters="sRGB">
<feFlood flood-opacity="0" result="BackgroundImageFix"/>
<feColorMatrix in="SourceAlpha" type="matrix" values="0 0 0 0 0 0 0 0 0 0 0 0 0 0 0 0 0 0 127 0"/>
<feOffset dy="4"/>
<feGaussianBlur stdDeviation="2"/>
<feColorMatrix type="matrix" values="0 0 0 0 0 0 0 0 0 0 0 0 0 0 0 0 0 0 0.25 0"/>
<feBlend mode="normal" in2="BackgroundImageFix" result="effect1_dropShadow"/>
<feColorMatrix in="SourceAlpha" type="matrix" values="0 0 0 0 0 0 0 0 0 0 0 0 0 0 0 0 0 0 127 0"/>
<feOffset dy="4"/>
<feGaussianBlur stdDeviation="2"/>
<feColorMatrix type="matrix" values="0 0 0 0 0 0 0 0 0 0 0 0 0 0 0 0 0 0 0.25 0"/>
<feBlend mode="normal" in2="effect1_dropShadow" result="effect2_dropShadow"/>
<feBlend mode="normal" in="SourceGraphic" in2="effect2_dropShadow" result="shape"/>
</filter>
</defs>
</svg>
