<svg width="26" height="18" viewBox="0 0 26 18" fill="none" xmlns="http://www.w3.org/2000/svg">
<path d="M24.6666 0.333984H1.33336C0.59998 0.333984 0 0.933965 0 1.6673V16.334C0 17.0673 0.59998 17.6674 1.33336 17.6674H24.6667C25.4 17.6674 26 17.0674 26 16.334V1.6673C26 0.933965 25.4 0.333984 24.6666 0.333984ZM24.1663 1.33392L13.767 9.13402C13.58 9.27631 13.293 9.36533 12.9999 9.36401C12.7069 9.36533 12.42 9.27631 12.2329 9.13402L1.83366 1.33392H24.1663ZM18.6113 9.64869L24.278 16.6487C24.2837 16.6557 24.2907 16.6611 24.2967 16.6674H1.7033C1.7093 16.6608 1.7163 16.6557 1.72199 16.6487L7.38867 9.64869C7.56229 9.43403 7.52939 9.11934 7.31433 8.94532C7.09968 8.7717 6.78498 8.8046 6.61131 9.0193L0.999984 15.951V1.95893L11.6333 9.93392C12.033 10.2316 12.5193 10.3626 12.9999 10.3639C13.4799 10.3629 13.9666 10.2319 14.3665 9.93392L24.9998 1.95893V15.9509L19.3886 9.0193C19.215 8.80465 18.9 8.77164 18.6856 8.94532C18.4706 9.11894 18.4376 9.43403 18.6113 9.64869Z" fill="#0085FF"/>
</svg>
