<svg width="26" height="26" viewBox="0 0 26 26" fill="none" xmlns="http://www.w3.org/2000/svg">
<path d="M12.9999 0C8.22122 0 4.33325 3.88797 4.33325 8.66668C4.33325 10.1013 4.69192 11.5236 5.37376 12.7852L12.526 25.7207C12.6212 25.8932 12.8027 26 12.9999 26C13.1972 26 13.3787 25.8932 13.4739 25.7207L20.6288 12.781C21.308 11.5236 21.6666 10.1012 21.6666 8.66663C21.6666 3.88796 17.7787 0 12.9999 0ZM12.9999 13C10.6106 13 8.66662 11.056 8.66662 8.66668C8.66662 6.27732 10.6106 4.33337 12.9999 4.33337C15.3893 4.33337 17.3333 6.27732 17.3333 8.66668C17.3333 11.056 15.3893 13 12.9999 13Z" fill="#0085FF"/>
</svg>
