<?xml version="1.0" encoding="iso-8859-1"?>
<svg version="1.1" id="Capa_1" xmlns="http://www.w3.org/2000/svg" xmlns:xlink="http://www.w3.org/1999/xlink" x="0px" y="0px"
	 viewBox="0 0 512 512" style="enable-background:new 0 0 512 512;" xml:space="preserve" fill="#0085FF">
<g>
	<g>
		<path d="M135,196.002H75c-8.284,0-15,6.716-15,15s6.716,14.8,15,14.8h60c8.284,0,15-6.516,15-14.8S143.284,196.002,135,196.002z"
			/>
	</g>
</g>
<g>
	<g>
		<path d="M135,256.002H75c-8.284,0-15,6.716-15,15s6.716,14.8,15,14.8h60c8.284,0,15-6.516,15-14.8S143.284,256.002,135,256.002z"
			/>
	</g>
</g>
<g>
	<g>
		<path d="M451.999,167.511V60.998c0-24.813-20.187-45-45-45c-22.383,0-40.994,16.428-44.427,37.858l-68.577,49.526
			c-0.053,0.038-0.105,0.077-0.157,0.115c-28.243,20.961-63.166,32.505-98.337,32.505H75c-41.355,0-75,33.645-75,75v60
			c0,41.355,33.645,75,75,75l15-0.2v105.2c0,24.813,20.187,45,45,45s45-20.187,45-45v-45h15c24.813,0,45-20.187,45-45v-8.683
			c19.406,5.516,37.809,14.54,54,26.684c0.053,0.039,0.105,0.078,0.158,0.117l68.599,50.059
			c3.858,20.92,22.221,36.822,44.242,36.822c24.813,0,45-20.187,45-45V314.493C486.192,307.525,512,277.222,512,241.002
			C512,204.782,486.192,174.479,451.999,167.511z M150,451.002c0,8.271-6.729,15-15,15s-15-6.729-15-15v-105.2h30V451.002z
			 M75,316.002c-24.813,0-45-20.187-45-45v-60c0-24.813,20.187-45.2,45-45.2h105v150.2H75z M210,361.002c0,8.271-6.729,15-15,15h-15
			v-30.2c15.863,0,20.692,0.041,30,0.905V361.002z M362.199,391.487l-50.281-36.546C282.445,332.86,246.717,319.478,210,316.597
			V165.443c36.54-2.775,72.161-15.944,101.636-37.796l50.563-36.372V391.487z M422.199,421c0,8.271-6.929,15-15.2,15
			c-8.271,0-15-6.729-15-15V60.998c0-8.271,6.729-15,15-15s15.2,6.729,15.2,15V421z M451.999,283.422v-84.84
			c17.459,6.192,30.001,22.865,30.001,42.42S469.458,277.23,451.999,283.422z"/>
	</g>
</g>
<g>
</g>
<g>
</g>
<g>
</g>
<g>
</g>
<g>
</g>
<g>
</g>
<g>
</g>
<g>
</g>
<g>
</g>
<g>
</g>
<g>
</g>
<g>
</g>
<g>
</g>
<g>
</g>
<g>
</g>
</svg>
