<svg width="156" height="157" viewBox="0 0 156 157" fill="none" xmlns="http://www.w3.org/2000/svg">
<rect width="110.124" height="110.124" rx="30" transform="matrix(0.706311 -0.707902 0.706311 0.707902 0 78.2246)" fill="#F5F5F5"/>
<rect width="90.1014" height="90.1014" rx="30" transform="matrix(0.706311 -0.707902 0.706311 0.707902 14 78.2559)" fill="#0085FF"/>
<g clip-path="url(#clip0)">
<path d="M85.6737 52.7755L77.8016 60.6653L71.6559 54.5057C71.0838 53.9324 70.1563 53.9324 69.5843 54.5057L45.2084 78.9365C44.6364 79.5098 44.6364 80.4394 45.2084 81.0127L72.0011 107.866C74.8568 110.728 79.5034 110.728 82.3591 107.866L107.356 82.8122C110.212 79.95 110.212 75.293 107.356 72.4308L87.7453 52.7755C87.1733 52.2022 86.2457 52.2022 85.6737 52.7755ZM80.2875 105.79C78.5741 107.507 75.7861 107.507 74.0727 105.79L48.3158 79.9746L70.6201 57.6201C97.9974 85.0591 96.4623 83.5467 96.8894 83.901C97.9397 84.7732 99.2033 85.3218 100.523 85.5089L80.2875 105.79ZM105.285 74.5071C106.998 76.2244 106.998 79.0186 105.285 80.7359C105.052 80.9689 104.892 81.1301 104.663 81.3588C102.95 83.0761 100.162 83.0761 98.4486 81.3588L79.8732 62.7416L86.7095 55.8899L105.285 74.5071Z" fill="white"/>
<path d="M70.138 63.919L54.6701 79.4218C54.098 79.9952 54.098 80.9248 54.6701 81.4981C55.2421 82.0714 56.1696 82.0714 56.7417 81.4981L72.2096 65.9953C72.7817 65.422 72.7817 64.4924 72.2096 63.919C71.6376 63.3457 70.7101 63.3457 70.138 63.919Z" fill="white"/>
<path d="M74.5575 68.3487L59.0895 83.8515C58.5175 84.4248 58.5175 85.3545 59.0895 85.9278C59.6616 86.5011 60.5891 86.5011 61.1611 85.9278L76.6291 70.425C77.2011 69.8517 77.2011 68.922 76.6291 68.3487C76.057 67.7754 75.1295 67.7754 74.5575 68.3487Z" fill="white"/>
<path d="M91.1302 84.9591L75.6623 100.462C75.0902 101.035 75.0902 101.965 75.6623 102.538C76.2343 103.111 77.1618 103.111 77.7339 102.538L93.2018 87.0353C93.7739 86.462 93.7739 85.5324 93.2018 84.9591C92.6298 84.3857 91.7023 84.3857 91.1302 84.9591Z" fill="white"/>
<path d="M78.9768 72.7778L71.2428 80.5292C70.6708 81.1026 70.6708 82.0322 71.2428 82.6055L78.9768 90.3569C79.5489 90.9302 80.4764 90.9302 81.0484 90.3569L88.7824 82.6055C89.3544 82.0322 89.3544 81.1026 88.7824 80.5292L81.0484 72.7778C80.4764 72.2045 79.5489 72.2045 78.9768 72.7778ZM85.675 81.5674L80.0126 87.2425L74.3502 81.5674L80.0126 75.8923L85.675 81.5674Z" fill="white"/>
<path d="M67.2378 92.0186L70.5523 88.6966C71.1244 88.1232 71.1244 87.1936 70.5523 86.6203C69.9803 86.047 69.0528 86.047 68.4807 86.6203L65.1662 89.9423C64.5941 90.5157 64.5941 91.4453 65.1662 92.0186C65.7382 92.5919 66.6657 92.5919 67.2378 92.0186Z" fill="white"/>
<path d="M71.6572 96.4473L74.9718 93.1253C75.5438 92.552 75.5438 91.6223 74.9718 91.049C74.3997 90.4757 73.4722 90.4757 72.9002 91.049L69.5856 94.371C69.0136 94.9444 69.0136 95.874 69.5856 96.4473C70.1576 97.0206 71.0852 97.0206 71.6572 96.4473Z" fill="white"/>
</g>
<defs>
<clipPath id="clip0">
<rect width="50.0563" height="50.0563" fill="white" transform="matrix(0.706311 -0.707902 0.706311 0.707902 43 78.7998)"/>
</clipPath>
</defs>
</svg>
