<svg width="40" height="40" viewBox="0 0 40 40" fill="none" xmlns="http://www.w3.org/2000/svg">
<path d="M20 40C31.0457 40 40 31.0457 40 20C40 8.95431 31.0457 0 20 0C8.95431 0 0 8.95431 0 20C0 31.0457 8.95431 40 20 40Z" fill="#41A4FF"/>
<path fill-rule="evenodd" clip-rule="evenodd" d="M19.2448 28.7716H20.8145C20.8145 28.7716 21.2887 28.7196 21.5307 28.4586C21.7536 28.219 21.7464 27.7691 21.7464 27.7691C21.7464 27.7691 21.7158 25.6628 22.6934 25.3526C23.657 25.0471 24.8945 27.3883 26.2061 28.2885C27.198 28.9699 27.9517 28.8205 27.9517 28.8205L31.4587 28.7716C31.4587 28.7716 33.2934 28.6586 32.4235 27.2161C32.3522 27.0981 31.9169 26.1491 29.8159 24.1989C27.6169 22.1578 27.9114 22.488 30.5603 18.9574C32.1736 16.8072 32.8185 15.4945 32.6171 14.9323C32.4249 14.3968 31.2384 14.5383 31.2384 14.5383L27.2896 14.5629C27.2896 14.5629 26.9969 14.523 26.7798 14.6528C26.5676 14.78 26.4311 15.0767 26.4311 15.0767C26.4311 15.0767 25.8061 16.7405 24.9726 18.1556C23.2142 21.1414 22.5112 21.299 22.2238 21.1136C21.5553 20.6815 21.7222 19.3777 21.7222 18.4515C21.7222 15.558 22.1611 14.3515 20.8676 14.0392C20.4384 13.9354 20.1225 13.867 19.0248 13.8559C17.6158 13.8413 16.4233 13.8602 15.748 14.1911C15.2988 14.411 14.9523 14.9013 15.1633 14.9294C15.4243 14.9644 16.0154 15.0888 16.3288 15.5155C16.7334 16.066 16.7192 17.3024 16.7192 17.3024C16.7192 17.3024 16.9516 20.7086 16.1762 21.1318C15.6439 21.422 14.9138 20.8295 13.3461 18.1206C12.5429 16.7331 11.9365 15.1993 11.9365 15.1993C11.9365 15.1993 11.8195 14.9127 11.611 14.7594C11.3578 14.5736 11.0042 14.5144 11.0042 14.5144L7.25181 14.539C7.25181 14.539 6.68851 14.5547 6.48173 14.7996C6.29776 15.0175 6.46711 15.4681 6.46711 15.4681C6.46711 15.4681 9.40483 22.3411 12.7311 25.8047C15.7812 28.9802 19.2448 28.7716 19.2448 28.7716Z" fill="white"/>
</svg>
