<svg width="274" height="274" viewBox="0 0 274 274" fill="none" xmlns="http://www.w3.org/2000/svg">
<path d="M136.98 1.42063e-06C164.076 -0.00389981 190.565 8.02726 213.097 23.0778C235.628 38.1283 253.191 59.5222 263.564 84.5541C273.937 109.586 276.654 137.132 271.371 163.708C266.089 190.284 253.045 214.697 233.888 233.86C214.73 253.022 190.321 266.074 163.747 271.364C137.172 276.654 109.626 273.945 84.5906 263.579C59.5556 253.213 38.1566 235.657 23.0996 213.129C8.04262 190.602 0.00390185 164.116 5.70161e-08 137.02C-0.00104736 100.686 14.4292 65.8402 40.117 40.1449C65.8049 14.4496 100.647 0.00941718 136.98 1.42063e-06Z" fill="#81C83D"/>
<path d="M121.319 194C118.224 194.004 115.159 193.392 112.3 192.2C109.441 191.007 106.844 189.257 104.659 187.051L67.1308 149.257C64.8936 147.065 63.1113 144.447 61.8873 141.556C60.6632 138.664 60.0219 135.556 60.0006 132.413C59.9792 129.27 60.5782 126.154 61.7628 123.245C62.9474 120.337 64.694 117.695 66.9012 115.472C69.1083 113.249 71.732 111.49 74.6199 110.297C77.5078 109.104 80.6024 108.5 83.7238 108.521C86.8453 108.543 89.9315 109.188 92.8032 110.42C95.6749 111.652 98.2749 113.447 100.452 115.699L121.688 137.084L174.047 86.6779C176.279 84.5024 178.916 82.7928 181.807 81.6475C184.698 80.5022 187.785 79.9438 190.891 80.0045C193.997 80.0651 197.061 80.7435 199.906 82.0008C202.75 83.258 205.32 85.0692 207.467 87.3302C209.614 89.5912 211.296 92.2574 212.416 95.1754C213.535 98.0933 214.071 101.205 213.992 104.333C213.913 107.46 213.221 110.541 211.956 113.397C210.69 116.254 208.876 118.831 206.618 120.979L137.607 187.423C133.225 191.651 127.388 194.008 121.319 194Z" fill="#D8FF33"/>
</svg>
