<svg width="80" height="80" viewBox="0 0 80 80" fill="none" xmlns="http://www.w3.org/2000/svg">
<g clip-path="url(#clip0)">
<path d="M80 14.6939V63.9255C80 65.4093 79.3176 66.81 78.1506 67.7262L68.6407 75.1804C67.4738 76.0947 65.8337 76.0947 64.668 75.1804L55.3015 67.8342C54.1345 66.9193 52.4945 66.9193 51.3269 67.8342L41.9653 75.1786C40.7983 76.0947 39.1565 76.0947 37.9913 75.1786L28.631 67.8354C28.4125 67.6633 28.1757 67.5229 27.9279 67.4155C27.1613 67.0822 26.2921 67.0615 25.5133 67.3557C25.2087 67.4686 24.9207 67.6291 24.6552 67.8372L15.3094 75.1755C14.1425 76.0929 12.5006 76.0929 11.3336 75.1755L1.84631 67.7262C0.681152 66.81 0 65.4099 0 63.9286V14.6976C0 13.3548 1.54663 12.6017 2.60437 13.4323L11.3336 20.286C11.6943 20.5692 12.0996 20.7657 12.5232 20.8738L41.0107 20.806C41.3489 20.6919 41.6724 20.5191 41.9653 20.289L51.3269 12.9447C51.5509 12.7689 51.7926 12.6273 52.0435 12.5193C52.8113 12.1897 53.6792 12.1732 54.458 12.468C54.7559 12.5803 55.0409 12.7396 55.3015 12.9441L64.668 20.2909C65.8331 21.2052 67.4738 21.2052 68.6407 20.2909L77.3975 13.4269C78.4534 12.5986 80 13.3518 80 14.6939Z" fill="#D0E8EF"/>
<path d="M26.7208 20.8398V67.1515C26.3119 67.1399 25.9011 67.2095 25.5136 67.3553C25.209 67.4683 24.9209 67.6294 24.6554 67.8369L15.3097 75.1752C14.6255 75.7129 13.7777 75.9369 12.958 75.8417V20.8722L26.7208 20.8398Z" fill="#94CCD3"/>
<path d="M53.2507 12.2607V67.1497C52.5696 67.1625 51.8939 67.3914 51.3269 67.8339L41.9653 75.1788C41.3879 75.6329 40.694 75.8612 40 75.8661V20.8075L41.0107 20.8063C41.3489 20.6921 41.6724 20.5194 41.9653 20.2893L51.3269 12.9443C51.5509 12.7692 51.7926 12.6276 52.0435 12.5195C52.428 12.3535 52.8387 12.2668 53.2507 12.2607Z" fill="#94CCD3"/>
<path d="M80.0001 14.6943V63.9259C80.0001 65.4097 79.3177 66.8104 78.1508 67.7259L68.6409 75.1802C68.0452 75.6471 67.3274 75.876 66.6108 75.8644V20.9748C67.3274 20.9864 68.0452 20.7576 68.6409 20.2912L77.3976 13.4272C78.4535 12.5984 80.0001 13.3516 80.0001 14.6943Z" fill="#94CCD3"/>
<path d="M41.1537 18.4686C41.1537 29.978 29.0809 35.2362 26.7469 42.5336C24.5204 35.2362 12.3408 29.978 12.3408 18.4686C12.3408 10.5127 18.7904 4.0625 26.7469 4.0625C34.7035 4.0625 41.1537 10.5121 41.1537 18.4686Z" fill="#FF8C64"/>
<path d="M26.7207 28.1338C21.3862 28.1338 17.0625 23.8094 17.0625 18.4756C17.0625 13.1417 21.3862 8.81738 26.7207 8.81738C32.0546 8.81738 36.3783 13.1417 36.3783 18.4756C36.3783 23.8094 32.0546 28.1338 26.7207 28.1338Z" fill="#A0513F"/>
<path d="M74.1058 45.5724C74.1058 54.5586 64.6796 58.6644 62.8571 64.3615C61.1188 58.6644 51.6089 54.5586 51.6089 45.5724C51.6089 39.3602 56.6449 34.3242 62.8571 34.3242C69.0698 34.3242 74.1058 39.3602 74.1058 45.5724Z" fill="#79B6D8"/>
<path d="M66.8793 45.5724C66.8793 47.7935 65.0781 49.594 62.8571 49.594C60.636 49.594 58.8354 47.7935 58.8354 45.5724C58.8354 43.3513 60.636 41.5508 62.8571 41.5508C65.0781 41.5508 66.8793 43.3513 66.8793 45.5724Z" fill="#D0E8EF"/>
<path d="M26.7207 23.3047C24.0535 23.3047 21.8916 21.1422 21.8916 18.4756C21.8916 15.8083 24.0535 13.6465 26.7207 13.6465C29.3873 13.6465 31.5492 15.809 31.5492 18.4756C31.5492 21.1422 29.3873 23.3047 26.7207 23.3047Z" fill="white"/>
<path d="M80.0001 14.6943V63.9259C80.0001 65.4097 79.3177 66.8104 78.1508 67.7259L68.6409 75.1802C68.0452 75.6471 67.3274 75.876 66.6108 75.8644V72.9866L73.3217 67.7259C74.4886 66.8104 75.171 65.4097 75.171 63.9253V15.1722L77.3976 13.4272C78.4535 12.5984 80.0001 13.3516 80.0001 14.6943Z" fill="#79B6D8"/>
<path d="M74.1055 45.5724C74.1055 54.5592 64.6798 58.6638 62.8573 64.3615C62.4355 62.9772 61.5536 61.6863 60.4604 60.3972C63.8748 56.3811 69.277 52.3748 69.277 45.5724C69.277 40.1897 65.494 35.689 60.4434 34.5848C61.2203 34.4139 62.0284 34.3242 62.8573 34.3242C69.0688 34.3242 74.1055 39.3602 74.1055 45.5724Z" fill="#3B8BB7"/>
<path d="M41.1538 18.4751C41.1538 29.9839 29.0811 35.2427 26.7471 42.5394C26.2966 41.0618 25.4366 39.6677 24.3533 38.2902C28.6465 32.8574 36.3247 27.6536 36.3247 18.4751C36.3247 11.3413 31.1398 5.41907 24.3325 4.27161C25.118 4.13794 25.9249 4.06836 26.7471 4.06836C34.7036 4.06836 41.1538 10.5186 41.1538 18.4751Z" fill="#ED5743"/>
</g>
<defs>
<clipPath id="clip0">
<rect width="80" height="80" fill="white"/>
</clipPath>
</defs>
</svg>
