<svg height="512" viewBox="0 0 512 512" width="512" xmlns="http://www.w3.org/2000/svg"><g><path d="m104 360a24 24 0 1 0 24 24 24.028 24.028 0 0 0 -24-24zm0 32a8 8 0 1 1 8-8 8.009 8.009 0 0 1 -8 8z"/><path d="m416 360a24 24 0 1 0 24 24 24.028 24.028 0 0 0 -24-24zm0 32a8 8 0 1 1 8-8 8.009 8.009 0 0 1 -8 8z"/><path d="m476 80h-288a28.031 28.031 0 0 0 -28 28v44h-80a8.019 8.019 0 0 0 -6.95 4.03l-64 112a8.017 8.017 0 0 0 -1.05 3.97v92a28.031 28.031 0 0 0 28 28h20.68a47.99 47.99 0 0 0 94.64 0h217.36a47.99 47.99 0 0 0 94.64 0h12.68a28.031 28.031 0 0 0 28-28v-256a28.031 28.031 0 0 0 -28-28zm-405.07 112h57.07v72h-98.21zm-46.93 112h16a8 8 0 0 1 0 16h-16zm80 112a32 32 0 1 1 32-32 32.042 32.042 0 0 1 -32 32zm56-40h-8.68a47.99 47.99 0 0 0 -94.64 0h-20.68a12.01 12.01 0 0 1 -12-12v-28h16a24 24 0 0 0 0-48h-16v-8h112a8 8 0 0 0 8-8v-88a8 8 0 0 0 -8-8h-55.93l4.57-8h75.36zm256 40a32 32 0 1 1 32-32 32.042 32.042 0 0 1 -32 32zm72-52a12.01 12.01 0 0 1 -12 12h-12.68a47.99 47.99 0 0 0 -94.64 0h-192.68v-56h312zm0-60h-312v-196a12.01 12.01 0 0 1 12-12h288a12.01 12.01 0 0 1 12 12z"/></g></svg>